<svg width="33" height="15" viewBox="0 0 33 15" fill="none" xmlns="http://www.w3.org/2000/svg">
<path fill-rule="evenodd" clip-rule="evenodd" d="M6.00643 2.04138C5.62872 2.50713 5.02438 2.87448 4.42005 2.822C4.3445 2.19226 4.64038 1.52316 4.98661 1.10989C5.36432 0.631021 6.02532 0.289911 6.56041 0.263672C6.62336 0.919653 6.37785 1.56251 6.00643 2.04138ZM6.55396 2.94775C6.02155 2.91581 5.53575 3.11459 5.14335 3.27515C4.89084 3.37847 4.677 3.46597 4.51432 3.46597C4.33176 3.46597 4.1091 3.3738 3.8591 3.27031C3.53152 3.1347 3.157 2.97966 2.76426 2.9871C1.86405 3.00022 1.02679 3.53157 0.567237 4.37778C-0.377042 6.07021 0.321725 8.57606 1.23453 9.95362C1.68149 10.6358 2.21658 11.3837 2.92164 11.3574C3.23182 11.3452 3.45495 11.2466 3.68587 11.1445C3.95172 11.0269 4.22789 10.9048 4.65911 10.9048C5.07538 10.9048 5.33948 11.0237 5.59299 11.1379C5.83404 11.2464 6.06553 11.3507 6.40917 11.3443C7.13942 11.3312 7.59897 10.6621 8.04592 9.97986C8.52826 9.24765 8.74023 8.53305 8.7724 8.42461L8.77617 8.41206C8.7754 8.41126 8.76944 8.40842 8.75892 8.4034C8.59768 8.32648 7.36527 7.73857 7.35345 6.16205C7.34159 4.83879 8.33097 4.16834 8.48671 4.06281C8.49619 4.05638 8.50258 4.05205 8.50547 4.04979C7.87595 3.07894 6.8939 2.97398 6.55396 2.94775ZM11.6094 11.2711V1.04435H15.2921C17.1932 1.04435 18.5215 2.40879 18.5215 4.40297C18.5215 6.39715 17.168 7.77471 15.2417 7.77471H13.1328V11.2711H11.6094ZM13.1326 2.38339H14.889C16.2109 2.38339 16.9664 3.11808 16.9664 4.41037C16.9664 5.70265 16.2109 6.44391 14.8827 6.44391H13.1326V2.38339ZM23.5513 10.0443C23.1484 10.8446 22.2608 11.3497 21.3039 11.3497C19.8875 11.3497 18.8991 10.4707 18.8991 9.14561C18.8991 7.83364 19.856 7.07927 21.6249 6.96775L23.5261 6.84967V6.28553C23.5261 5.45244 23.0036 4.99981 22.0719 4.99981C21.3039 4.99981 20.7436 5.41308 20.6303 6.04282H19.258C19.302 4.71774 20.4981 3.75345 22.116 3.75345C23.8597 3.75345 24.9929 4.70462 24.9929 6.18057V11.271H23.5827V10.0443H23.5513ZM21.7125 10.1351C20.9004 10.1351 20.3842 9.72842 20.3842 9.10524C20.3842 8.46237 20.8815 8.08847 21.8321 8.02943L23.5255 7.91791V8.49517C23.5255 9.4529 22.7449 10.1351 21.7125 10.1351ZM29.6702 11.671C29.0596 13.4618 28.3608 14.0522 26.8751 14.0522C26.7618 14.0522 26.3841 14.0391 26.296 14.0128V12.7861C26.3904 12.7993 26.6233 12.8124 26.7429 12.8124C27.4165 12.8124 27.7942 12.5172 28.0272 11.7497L28.1657 11.2971L25.5846 3.85168H27.1773L28.9714 9.89326H29.0029L30.7971 3.85168H32.3457L29.6702 11.671Z" fill="white"/>
</svg>
