<svg width="18" height="19" viewBox="0 0 18 19" fill="none" xmlns="http://www.w3.org/2000/svg">
<path d="M16 18.3613H7C6.46957 18.3613 5.96086 18.1506 5.58579 17.7755C5.21071 17.4005 5 16.8918 5 16.3613V12.3613H7V16.3613H16V2.36133H7V6.36133H5V2.36133C5 1.8309 5.21071 1.32219 5.58579 0.947114C5.96086 0.572042 6.46957 0.361328 7 0.361328H16C16.5304 0.361328 17.0391 0.572042 17.4142 0.947114C17.7893 1.32219 18 1.8309 18 2.36133V16.3613C18 16.8918 17.7893 17.4005 17.4142 17.7755C17.0391 18.1506 16.5304 18.3613 16 18.3613ZM9 13.3613V10.3613H0V8.36133H9V5.36133L14 9.36133L9 13.3613Z" fill="#CCCCCC"/>
</svg>
