<svg width="17" height="17" viewBox="0 0 17 17" fill="none" xmlns="http://www.w3.org/2000/svg">
<path d="M0.5 16.5V9.50004H7.5L4.283 12.72C4.83247 13.2819 5.48837 13.7287 6.21241 14.0343C6.93644 14.3399 7.71411 14.4983 8.5 14.5C9.73925 14.4982 10.9475 14.1127 11.9589 13.3965C12.9702 12.6802 13.7349 11.6684 14.148 10.5H14.166C14.28 10.175 14.367 9.84004 14.425 9.50004H16.437C16.1934 11.4333 15.2527 13.2111 13.7913 14.5C12.33 15.7888 10.4485 16.5 8.5 16.5H8.49C7.43982 16.5032 6.39944 16.298 5.4291 15.8963C4.45876 15.4946 3.57772 14.9045 2.837 14.16L0.5 16.5ZM2.574 7.50004H0.562C0.805476 5.56751 1.74564 3.79019 3.20616 2.50145C4.66667 1.2127 6.54719 0.501076 8.495 0.50004H8.5C9.55036 0.496714 10.5909 0.701826 11.5615 1.1035C12.532 1.50517 13.4132 2.09541 14.154 2.84004L16.5 0.50004V7.50004H9.5L12.722 4.28004C12.172 3.71752 11.5153 3.27035 10.7903 2.96471C10.0654 2.65907 9.28674 2.5011 8.5 2.50004C7.26074 2.50187 6.05246 2.88738 5.04114 3.60361C4.02982 4.31985 3.26508 5.33166 2.852 6.50004H2.834C2.719 6.82504 2.632 7.16004 2.575 7.50004H2.574Z" fill="#1A1A1A"/>
</svg>
