<svg width="33" height="15" viewBox="0 0 33 15" fill="none" xmlns="http://www.w3.org/2000/svg">
<path fill-rule="evenodd" clip-rule="evenodd" d="M6.00627 2.04333C5.62856 2.50908 5.02422 2.87643 4.41988 2.82395C4.34434 2.19421 4.64022 1.52511 4.98645 1.11184C5.36416 0.632975 6.02516 0.291864 6.56025 0.265625C6.6232 0.921606 6.37769 1.56447 6.00627 2.04333ZM6.55396 2.94857C6.02155 2.91664 5.53575 3.11542 5.14335 3.27597C4.89084 3.3793 4.677 3.46679 4.51432 3.46679C4.33176 3.46679 4.1091 3.37462 3.8591 3.27113C3.53152 3.13552 3.157 2.98049 2.76426 2.98793C1.86405 3.00105 1.02679 3.53239 0.567237 4.37861C-0.377042 6.07104 0.321725 8.57688 1.23453 9.95444C1.68149 10.6367 2.21658 11.3845 2.92164 11.3582C3.23182 11.346 3.45495 11.2474 3.68587 11.1453C3.95172 11.0277 4.22789 10.9056 4.65911 10.9056C5.07538 10.9056 5.33948 11.0245 5.59299 11.1387C5.83404 11.2473 6.06553 11.3515 6.40917 11.3451C7.13942 11.332 7.59897 10.6629 8.04592 9.98068C8.52827 9.24847 8.74023 8.53388 8.7724 8.42543L8.77617 8.41289C8.7754 8.41208 8.76944 8.40924 8.75892 8.40423C8.59769 8.32731 7.36527 7.7394 7.35345 6.16287C7.34159 4.83961 8.33097 4.16917 8.48671 4.06363C8.49619 4.0572 8.50258 4.05287 8.50547 4.05062C7.87595 3.07976 6.8939 2.97481 6.55396 2.94857ZM11.6091 11.273V1.04622H15.2917C17.1929 1.04622 18.5212 2.41066 18.5212 4.40484C18.5212 6.39902 17.1677 7.77658 15.2414 7.77658H13.1325V11.273H11.6091ZM13.1324 2.38445H14.8888C16.2108 2.38445 16.9662 3.11915 16.9662 4.41143C16.9662 5.70371 16.2108 6.44497 14.8825 6.44497H13.1324V2.38445ZM23.5511 10.0463C23.1482 10.8466 22.2606 11.3517 21.3037 11.3517C19.8873 11.3517 18.899 10.4727 18.899 9.14764C18.899 7.83568 19.8558 7.0813 21.6248 6.96978L23.5259 6.85171V6.28756C23.5259 5.45447 23.0034 5.00184 22.0717 5.00184C21.3037 5.00184 20.7435 5.41511 20.6301 6.04485H19.2578C19.3019 4.71977 20.4979 3.75548 22.1158 3.75548C23.8596 3.75548 24.9927 4.70665 24.9927 6.18261V11.273H23.5826V10.0463H23.5511ZM21.7128 10.1381C20.9007 10.1381 20.3845 9.73142 20.3845 9.10824C20.3845 8.46538 20.8819 8.09147 21.8324 8.03243L23.5258 7.92091V8.49818C23.5258 9.45591 22.7452 10.1381 21.7128 10.1381ZM29.67 11.6732C29.0594 13.464 28.3606 14.0544 26.875 14.0544C26.7617 14.0544 26.384 14.0413 26.2958 14.015V12.7883C26.3903 12.8014 26.6232 12.8146 26.7428 12.8146C27.4164 12.8146 27.7941 12.5194 28.027 11.7519L28.1655 11.2993L25.5845 3.85387H27.1772L28.9713 9.89545H29.0028L30.7969 3.85387H32.3455L29.67 11.6732Z" fill="white"/>
</svg>
