<svg width="38" height="40" viewBox="0 0 38 40" fill="none" xmlns="http://www.w3.org/2000/svg">
<path d="M35.4902 0.538949C35.4369 0.343152 35.3044 0.178413 35.1244 0.0846357C34.7691 -0.103321 34.3288 0.032269 34.1407 0.387478C34.1402 0.388382 34.1397 0.389287 34.1393 0.390192C34.1393 0.410294 30.4526 7.56272 19.1349 8.80906C17.6586 8.96657 16.2156 9.35173 14.8571 9.95088C12.4257 11.008 10.4175 12.8477 9.15209 15.1775C7.97067 17.3659 7.48138 19.8614 7.74894 22.3339C7.94605 24.1363 8.54801 25.8709 9.50991 27.4078C7.49967 28.8511 1.1232 33.8405 0.548273 39.1958C0.506058 39.5954 0.795934 39.9537 1.19557 39.9959C1.59531 40.0381 1.95343 39.7482 1.99564 39.3486C2.52233 34.5682 8.50479 29.9326 10.3703 28.5898C12.6097 31.3398 15.9628 32.8917 19.5611 33.145C21.9829 33.3013 24.4077 32.8883 26.6412 31.9389C29.0657 30.9216 31.207 29.3308 32.8809 27.3032C37.1949 22.0766 39.2494 13.2919 35.4902 0.538949ZM10.7884 26.6881C10.511 26.2512 10.2665 25.7943 10.0567 25.3211C9.61525 24.3228 9.3305 23.2624 9.21239 22.1771C8.96614 19.9995 9.38668 17.7984 10.4185 15.865C11.5338 13.8152 13.3029 12.1975 15.4441 11.2696C16.6683 10.7366 17.9675 10.3962 19.2957 10.2605C26.7658 9.45636 31.1602 6.13143 33.4277 3.71914C32.0954 8.10538 29.8016 12.1393 26.7135 15.5273L26.2713 11.0726C26.2488 10.6713 25.9052 10.3643 25.504 10.3868C25.1027 10.4093 24.7957 10.7529 24.8182 11.1541C24.8193 11.1739 24.8212 11.1937 24.8239 11.2133L25.3908 16.9385C22.0096 20.3679 17.3096 23.8135 10.7884 26.6881ZM31.7552 26.3705V26.3745C30.2342 28.2262 28.286 29.6806 26.0783 30.6121C24.048 31.4701 21.8445 31.8391 19.6455 31.6896C16.5842 31.5345 13.7115 30.1639 11.6649 27.8822C14.0633 26.8209 16.3823 25.5888 18.6042 24.1954L24.9928 25.4016C25.3898 25.4638 25.7621 25.1923 25.8243 24.7953C25.8843 24.4123 25.6335 24.0495 25.2541 23.9703L20.3451 23.0415C22.6117 21.4848 24.7217 19.7115 26.6452 17.7466C26.6805 17.7162 26.7127 17.6826 26.7417 17.6461C31.8155 12.3632 33.9745 7.13655 34.8751 3.92017C37.3597 14.5181 35.458 21.8917 31.7552 26.3705Z" fill="#00B307"/>
</svg>
