<svg width="40" height="40" viewBox="0 0 40 40" fill="none" xmlns="http://www.w3.org/2000/svg">
<path d="M31.1384 17.3704C30.9781 16.8758 30.5586 16.5221 30.0439 16.4474L23.9436 15.5609L21.2156 10.0337C20.9859 9.56711 20.52 9.27734 19.9999 9.27734C19.4798 9.27734 19.0139 9.56711 18.7843 10.0332L16.056 15.5609L9.95566 16.4474C9.44137 16.5221 9.02199 16.8755 8.86113 17.3702C8.70082 17.8641 8.83215 18.3965 9.20426 18.7598L13.6187 23.0625L12.5766 29.138C12.4886 29.6503 12.695 30.1584 13.1157 30.4641C13.3533 30.637 13.6314 30.7248 13.9114 30.7247C14.1268 30.7247 14.3434 30.6727 14.5435 30.5675L19.9999 27.6989L25.4559 30.5676C25.6496 30.6693 25.8677 30.7231 26.0865 30.7231C26.375 30.7231 26.6505 30.6336 26.8837 30.4641C27.3036 30.1587 27.5104 29.6509 27.4228 29.1384L27.0106 26.7347C26.9515 26.3909 26.6247 26.1599 26.2813 26.2189C25.9375 26.2779 25.7066 26.6045 25.7656 26.9482L26.1778 29.3515C26.1836 29.3862 26.1691 29.422 26.1409 29.4424C26.099 29.473 26.0686 29.4627 26.0434 29.4494L20.2934 26.4264C20.1095 26.3298 19.8898 26.3297 19.7056 26.4264L13.955 29.4495C13.9243 29.4657 13.8861 29.4629 13.8579 29.4424C13.8293 29.4216 13.8151 29.387 13.8211 29.3519L14.9194 22.9488C14.9546 22.7438 14.8868 22.5348 14.7379 22.3898L10.0859 17.8555C10.0607 17.8309 10.0514 17.7936 10.0621 17.7606C10.0729 17.7273 10.1023 17.7024 10.1369 17.6974L16.5659 16.7632C16.7717 16.7333 16.9495 16.6041 17.0415 16.4177L19.9169 10.5918C19.9482 10.5284 20.0509 10.5279 20.0825 10.5921L22.9578 16.4177C23.0497 16.6041 23.2276 16.7333 23.4333 16.7632L29.8624 17.6974C29.8969 17.7025 29.9261 17.727 29.9371 17.7609C29.9479 17.7939 29.9386 17.831 29.9136 17.8553L25.2615 22.3898C25.1127 22.5348 25.0447 22.744 25.08 22.9488L25.427 24.9719C25.4858 25.3156 25.8125 25.5466 26.1561 25.4876C26.5 25.4286 26.7309 25.102 26.6718 24.7583L26.381 23.0625L30.7954 18.7595C31.1678 18.3964 31.2991 17.8639 31.1384 17.3704Z" fill="#00B307" stroke="#00B307" stroke-width="0.3"/>
<path d="M3.63141 19.3691H0.631562C0.282734 19.3691 0 19.6519 0 20.0007C0 20.3495 0.282734 20.6322 0.631562 20.6322H3.63141C3.98031 20.6322 4.26297 20.3494 4.26297 20.0007C4.26297 19.6519 3.98023 19.3691 3.63141 19.3691Z" fill="#00B307" stroke="#00B307" stroke-width="0.3"/>
<path d="M39.3682 19.3691H36.3684C36.0195 19.3691 35.7368 19.6519 35.7368 20.0007C35.7368 20.3495 36.0195 20.6322 36.3684 20.6322H39.3682C39.7171 20.6322 39.9997 20.3494 39.9997 20.0007C39.9997 19.6519 39.7171 19.3691 39.3682 19.3691Z" fill="#00B307" stroke="#00B307" stroke-width="0.3"/>
<path d="M7.97932 31.1283L5.85814 33.2494C5.61143 33.496 5.61143 33.8959 5.85807 34.1426C5.98143 34.2659 6.14307 34.3276 6.30471 34.3276C6.46627 34.3276 6.62799 34.2659 6.75119 34.1427L8.87236 32.0215C9.11908 31.7749 9.11908 31.375 8.87244 31.1283C8.6258 30.8817 8.22588 30.8817 7.97932 31.1283Z" fill="#00B307" stroke="#00B307" stroke-width="0.3"/>
<path d="M33.2487 5.85694L31.1274 7.97804C30.8807 8.22468 30.8807 8.6246 31.1274 8.87124C31.2507 8.9946 31.4123 9.05624 31.574 9.05624C31.7356 9.05624 31.8973 8.9946 32.0205 8.87116L34.1417 6.75007C34.3884 6.50351 34.3884 6.10358 34.1418 5.85694C33.8951 5.61022 33.4952 5.61015 33.2487 5.85694Z" fill="#00B307" stroke="#00B307" stroke-width="0.3"/>
<path d="M20 35.7383C19.6511 35.7383 19.3684 36.0211 19.3684 36.3698V39.3696C19.3684 39.7184 19.6511 40.0012 20 40.0012C20.3489 40.0012 20.6315 39.7184 20.6315 39.3696V36.3698C20.6315 36.021 20.3489 35.7383 20 35.7383Z" fill="#00B307" stroke="#00B307" stroke-width="0.3"/>
<path d="M20 4.26297C20.3489 4.26297 20.6315 3.98016 20.6315 3.63141V0.631562C20.6315 0.282734 20.3488 0 20 0C19.6511 0 19.3684 0.282812 19.3684 0.631562V3.63141C19.3684 3.98023 19.6511 4.26297 20 4.26297Z" fill="#00B307" stroke="#00B307" stroke-width="0.3"/>
<path d="M32.0205 31.1283C31.774 30.8817 31.3741 30.8817 31.1274 31.1283C30.8807 31.3749 30.8807 31.7748 31.1274 32.0215L33.2487 34.1427C33.3719 34.266 33.5337 34.3277 33.6952 34.3277C33.8568 34.3277 34.0185 34.266 34.1418 34.1426C34.3884 33.896 34.3884 33.4961 34.1417 33.2494L32.0205 31.1283Z" fill="#00B307" stroke="#00B307" stroke-width="0.3"/>
<path d="M7.97924 8.87116C8.1026 8.99452 8.26424 9.05616 8.42588 9.05616C8.58744 9.05616 8.74916 8.99452 8.87244 8.87132C9.11908 8.62467 9.11908 8.22475 8.87244 7.97811L6.75128 5.85686C6.50471 5.61021 6.10487 5.61021 5.85808 5.85686C5.61144 6.10342 5.61144 6.50334 5.85808 6.74998L7.97924 8.87116Z" fill="#00B307" stroke="#00B307" stroke-width="0.3"/>
</svg>
