<svg width="28" height="18" viewBox="0 0 28 18" fill="none" xmlns="http://www.w3.org/2000/svg">
<path d="M22.5187 12.3683V7.82146C22.5187 5.02968 20.1917 2.6926 16.1338 2.07423V1.45585C16.1338 0.701076 15.169 0.0917969 13.9914 0.0917969C12.8137 0.0917969 11.8773 0.701076 11.8773 1.45585V2.07423C7.80519 2.6926 5.49246 5.02059 5.49246 7.82146V12.3683L3.64796 13.5414C2.75409 14.1143 3.37838 15.0964 4.64116 15.0964H23.3274C24.5902 15.0964 25.2287 14.1143 24.3348 13.5414L22.5187 12.3683ZM13.9914 17.8245C15.5521 17.8245 16.8291 17.0061 16.8291 16.0058H11.1537C11.1537 17.0061 12.4164 17.8245 13.9914 17.8245ZM6.58498 2.1197C7.1809 1.77413 7.19508 1.18304 6.62754 0.819294C6.08838 0.473733 5.20869 0.464639 4.65534 0.801107C2.22911 2.21973 0.554871 4.14759 0.015708 6.3119C-0.111988 6.86662 0.554871 7.36677 1.43456 7.36677C2.1156 7.36677 2.71152 7.04849 2.82503 6.61199C3.25068 4.84781 4.61278 3.2746 6.58498 2.1197ZM23.37 0.801107C22.8024 0.464639 21.9227 0.473733 21.3836 0.819294C20.816 1.18304 20.8444 1.76504 21.4261 2.1106C23.3842 3.2655 24.7604 4.83872 25.1861 6.6029C25.2854 7.0394 25.8813 7.35768 26.5766 7.35768C27.4421 7.35768 28.1231 6.85752 27.9812 6.3028C27.4421 4.14759 25.782 2.22882 23.37 0.801107Z" fill="white"/>
</svg>
