<svg width="33" height="15" viewBox="0 0 33 15" fill="none" xmlns="http://www.w3.org/2000/svg">
<path fill-rule="evenodd" clip-rule="evenodd" d="M6.00643 2.04236C5.62872 2.5081 5.02438 2.87545 4.42005 2.82298C4.3445 2.19323 4.64038 1.52413 4.98661 1.11086C5.36432 0.631998 6.02532 0.290888 6.56041 0.264648C6.62336 0.92063 6.37785 1.56349 6.00643 2.04236ZM6.55396 2.94743C6.02155 2.9155 5.53575 3.11428 5.14335 3.27484C4.89084 3.37816 4.677 3.46565 4.51432 3.46565C4.33176 3.46565 4.1091 3.37348 3.8591 3.26999C3.53152 3.13438 3.157 2.97935 2.76426 2.98679C1.86405 2.99991 1.02679 3.53125 0.567237 4.37747C-0.377042 6.0699 0.321725 8.57574 1.23453 9.9533C1.68149 10.6355 2.21658 11.3833 2.92164 11.3571C3.23182 11.3449 3.45495 11.2462 3.68587 11.1441C3.95172 11.0266 4.22789 10.9045 4.65911 10.9045C5.07538 10.9045 5.33948 11.0234 5.59299 11.1376C5.83404 11.2461 6.06553 11.3504 6.40917 11.344C7.13942 11.3309 7.59897 10.6618 8.04592 9.97954C8.52827 9.24734 8.74023 8.53274 8.7724 8.42429L8.77617 8.41175C8.7754 8.41095 8.76944 8.4081 8.75892 8.40309C8.59768 8.32617 7.36527 7.73825 7.35345 6.16173C7.34159 4.83847 8.33097 4.16803 8.48671 4.06249C8.49619 4.05607 8.50258 4.05174 8.50547 4.04948C7.87595 3.07863 6.8939 2.97367 6.55396 2.94743ZM11.6091 11.2721V1.04532H15.2917C17.1929 1.04532 18.5212 2.40976 18.5212 4.40394C18.5212 6.39813 17.1677 7.77569 15.2414 7.77569H13.1325V11.2721H11.6091ZM13.1323 2.38307H14.8886C16.2106 2.38307 16.966 3.11777 16.966 4.41005C16.966 5.70233 16.2106 6.44359 14.8823 6.44359H13.1323V2.38307ZM23.5509 10.0453C23.1481 10.8456 22.2604 11.3507 21.3036 11.3507C19.8871 11.3507 18.8988 10.4717 18.8988 9.14658C18.8988 7.83462 19.8557 7.08024 21.6246 6.96873L23.5258 6.85065V6.28651C23.5258 5.45341 23.0033 5.00079 22.0716 5.00079C21.3036 5.00079 20.7433 5.41405 20.63 6.04379H19.2576C19.3017 4.71871 20.4978 3.75442 22.1156 3.75442C23.8594 3.75442 24.9925 4.70559 24.9925 6.18155V11.272H23.5824V10.0453H23.5509ZM21.7128 10.1374C20.9007 10.1374 20.3845 9.73069 20.3845 9.1075C20.3845 8.46464 20.8819 8.09074 21.8324 8.0317L23.5258 7.92018V8.49744C23.5258 9.45517 22.7452 10.1374 21.7128 10.1374ZM29.6699 11.6719C29.0593 13.4628 28.3605 14.0532 26.8748 14.0532C26.7615 14.0532 26.3838 14.04 26.2957 14.0138V12.7871C26.3901 12.8002 26.623 12.8133 26.7426 12.8133C27.4162 12.8133 27.7939 12.5182 28.0268 11.7507L28.1653 11.298L25.5843 3.85265H27.177L28.9711 9.89424H29.0026L30.7967 3.85265H32.3454L29.6699 11.6719Z" fill="white"/>
</svg>
