<svg width="41" height="20" viewBox="0 0 41 20" fill="none" xmlns="http://www.w3.org/2000/svg">
<path d="M15.0293 19.6757L40.1764 12.0654V15.7051C40.1764 17.898 38.3987 19.6757 36.2058 19.6757H15.0293Z" fill="#FD6020"/>
<path fill-rule="evenodd" clip-rule="evenodd" d="M35.4034 1.05802C36.7869 1.05802 37.5478 1.698 37.5478 2.90686C37.6169 3.83128 36.9944 4.61348 36.1643 4.7557L38.032 7.38674H36.5793L34.9883 4.82681H34.85V7.38674H33.674V1.05802H35.4034ZM34.8499 3.9732H35.1958C35.9567 3.9732 36.3025 3.61765 36.3025 2.97767C36.3025 2.4088 35.9567 2.05325 35.1958 2.05325H34.8499V3.9732ZM29.5925 7.3872H32.9128V6.32056H30.7685V4.61394H32.8437V3.5473H30.7685V2.12512H32.9128V1.05848H29.5925V7.3872V7.3872ZM26.1338 5.32503L24.5428 1.05848H23.2977L25.8571 7.52942H26.4797L29.0391 1.05848H27.794L26.1338 5.32503V5.32503ZM12.0916 4.25744C12.0916 6.03516 13.4751 7.52846 15.2044 7.52846C15.7578 7.52846 16.242 7.38624 16.7263 7.17291V5.75073C16.3804 6.17738 15.8962 6.46182 15.3428 6.46182C14.236 6.46182 13.3367 5.60851 13.3367 4.47076V4.32854C13.2676 3.1908 14.1668 2.19527 15.2736 2.12416C15.827 2.12416 16.3804 2.4086 16.7263 2.83525V1.41307C16.3112 1.12863 15.7578 1.05752 15.2736 1.05752C13.4751 0.915303 12.0916 2.4086 12.0916 4.25744V4.25744ZM9.9472 3.47556C9.25546 3.19112 9.04794 3.0489 9.04794 2.69335C9.11711 2.2667 9.46298 1.91115 9.87803 1.98226C10.2239 1.98226 10.5698 2.19559 10.8465 2.48003L11.469 1.62672C10.9848 1.20006 10.3622 0.915625 9.73968 0.915625C8.77124 0.844515 7.94116 1.62672 7.87198 2.62225V2.69335C7.87198 3.54667 8.21785 4.04443 9.32463 4.39998C9.60133 4.47108 9.87803 4.6133 10.1547 4.75552C10.3622 4.89774 10.5006 5.11107 10.5006 5.3955C10.5006 5.89327 10.0855 6.31992 9.6705 6.31992H9.60133C9.04794 6.31992 8.56372 5.96438 8.3562 5.46661L7.59529 6.24882C8.01033 7.03102 8.84042 7.45767 9.6705 7.45767C10.7773 7.52878 11.6765 6.67547 11.7457 5.53772V5.3244C11.6765 4.47108 11.3307 4.04443 9.9472 3.47556V3.47556ZM5.93506 7.3872H7.11101V1.05848H5.93506V7.3872V7.3872ZM0.470215 1.05802H2.19956H2.54543C4.20561 1.12913 5.51991 2.55131 5.45074 4.25793C5.45074 5.18235 5.03569 6.03566 4.34395 6.67565C3.72139 7.17341 2.96048 7.45785 2.19956 7.38674H0.470215V1.05802ZM1.99194 6.32048C2.54534 6.39159 3.1679 6.17826 3.58294 5.82272C3.99799 5.39606 4.20551 4.82719 4.20551 4.18721C4.20551 3.61833 3.99799 3.04946 3.58294 2.6228C3.1679 2.26726 2.54534 2.05393 1.99194 2.12504H1.64608V6.32048H1.99194Z" fill="white"/>
<path fill-rule="evenodd" clip-rule="evenodd" d="M20.254 0.911133C18.5247 0.911133 17.072 2.33332 17.072 4.18216C17.072 5.95989 18.4555 7.45318 20.254 7.52429C22.0525 7.5954 23.436 6.1021 23.5052 4.25327C23.436 2.40443 22.0525 0.911133 20.254 0.911133V0.911133Z" fill="#FD6020"/>
</svg>
