<svg width="10" height="10" viewBox="0 0 10 10" fill="none" xmlns="http://www.w3.org/2000/svg">
<path d="M5.20672 7.94042L7.5711 9.43817C7.87335 9.62942 8.24835 9.34479 8.15872 8.99192L7.47585 6.30504C7.45656 6.2302 7.45878 6.15143 7.48227 6.0778C7.50575 6.00416 7.54954 5.93865 7.6086 5.88879L9.72885 4.12442C10.0071 3.89267 9.86385 3.43029 9.50572 3.40704L6.7371 3.22704C6.66255 3.22175 6.59105 3.1954 6.5309 3.15106C6.47075 3.10671 6.42444 3.04619 6.39735 2.97654L5.3646 0.376293C5.33648 0.302395 5.28656 0.23879 5.22146 0.193911C5.15636 0.149033 5.07916 0.125 5.0001 0.125C4.92103 0.125 4.84383 0.149033 4.77873 0.193911C4.71364 0.23879 4.66372 0.302395 4.6356 0.376293L3.60285 2.97654C3.57581 3.04626 3.52952 3.10686 3.46937 3.15127C3.40922 3.19569 3.33768 3.2221 3.2631 3.22742L0.494473 3.40742C0.136723 3.43029 -0.00727701 3.89267 0.271348 4.12442L2.3916 5.88917C2.45059 5.93899 2.49434 6.00444 2.51782 6.078C2.5413 6.15156 2.54356 6.23025 2.52435 6.30504L1.89135 8.79692C1.78372 9.22029 2.2341 9.56192 2.59635 9.33204L4.79385 7.94042C4.85561 7.90115 4.92728 7.8803 5.00047 7.8803C5.07366 7.8803 5.14533 7.90115 5.2071 7.94042H5.20672Z" fill="#CCCCCC"/>
</svg>
