<svg width="10" height="11" viewBox="0 0 10 11" fill="none" xmlns="http://www.w3.org/2000/svg">
<path d="M8.20833 5.04199H1.79167C1.28541 5.04199 0.875 5.4524 0.875 5.95866V9.16699C0.875 9.67325 1.28541 10.0837 1.79167 10.0837H8.20833C8.71459 10.0837 9.125 9.67325 9.125 9.16699V5.95866C9.125 5.4524 8.71459 5.04199 8.20833 5.04199Z" stroke="white" stroke-width="0.916667" stroke-linecap="round" stroke-linejoin="round"/>
<path d="M2.70825 5.04199V3.20866C2.70825 2.60087 2.94969 2.01798 3.37947 1.58821C3.80924 1.15843 4.39213 0.916992 4.99992 0.916992C5.60771 0.916992 6.1906 1.15843 6.62037 1.58821C7.05014 2.01798 7.29159 2.60087 7.29159 3.20866V5.04199" stroke="white" stroke-width="0.916667" stroke-linecap="round" stroke-linejoin="round"/>
</svg>
