<svg width="31" height="19" viewBox="0 0 31 19" fill="none" xmlns="http://www.w3.org/2000/svg">
<path fill-rule="evenodd" clip-rule="evenodd" d="M15.2369 16.2751C13.6698 17.5961 11.6369 18.3935 9.4156 18.3935C4.45916 18.3935 0.441162 14.4233 0.441162 9.52585C0.441162 4.62838 4.45916 0.658203 9.4156 0.658203C11.6369 0.658203 13.6698 1.45564 15.2369 2.7766C16.804 1.45564 18.8369 0.658203 21.0582 0.658203C26.0147 0.658203 30.0326 4.62838 30.0326 9.52585C30.0326 14.4233 26.0147 18.3935 21.0582 18.3935C18.8369 18.3935 16.804 17.5961 15.2369 16.2751Z" fill="#ED0006"/>
<path fill-rule="evenodd" clip-rule="evenodd" d="M15.2368 16.2751C17.1664 14.6486 18.39 12.2284 18.39 9.52585C18.39 6.82328 17.1664 4.40309 15.2368 2.7766C16.8039 1.45564 18.8368 0.658203 21.0581 0.658203C26.0146 0.658203 30.0326 4.62838 30.0326 9.52585C30.0326 14.4233 26.0146 18.3935 21.0581 18.3935C18.8368 18.3935 16.8039 17.5961 15.2368 16.2751Z" fill="#F9A000"/>
<path fill-rule="evenodd" clip-rule="evenodd" d="M15.2369 16.2749C17.1665 14.6484 18.39 12.2282 18.39 9.52562C18.39 6.82305 17.1665 4.40286 15.2369 2.77637C13.3073 4.40286 12.0837 6.82305 12.0837 9.52562C12.0837 12.2282 13.3073 14.6484 15.2369 16.2749Z" fill="#FF5E00"/>
</svg>
