<svg width="33" height="12" viewBox="0 0 33 12" fill="none" xmlns="http://www.w3.org/2000/svg">
<path fill-rule="evenodd" clip-rule="evenodd" d="M8.72836 10.9889H6.00223L3.95797 2.96049C3.86094 2.59119 3.65492 2.2647 3.35187 2.11082C2.59557 1.72412 1.76218 1.41637 0.853027 1.26115V0.952062H5.2446C5.85071 0.952062 6.30528 1.41637 6.38105 1.95561L7.44172 7.74673L10.1665 0.952062H12.8169L8.72836 10.9889ZM14.3322 10.9889H11.7576L13.8776 0.952062H16.4522L14.3322 10.9889ZM19.7832 3.73268C19.8589 3.1921 20.3135 2.88301 20.8438 2.88301C21.6772 2.8054 22.585 2.96062 23.3427 3.34598L23.7972 1.18501C23.0396 0.875918 22.2062 0.720703 21.4499 0.720703C18.9511 0.720703 17.1328 2.11095 17.1328 4.04043C17.1328 5.50828 18.4208 6.27901 19.3299 6.74331C20.3135 7.20628 20.6923 7.51537 20.6165 7.97834C20.6165 8.6728 19.8589 8.98189 19.1026 8.98189C18.1935 8.98189 17.2843 8.7504 16.4523 8.3637L15.9977 10.526C16.9068 10.9114 17.8904 11.0666 18.7996 11.0666C21.6015 11.1429 23.3427 9.75395 23.3427 7.66925C23.3427 5.04398 19.7832 4.8901 19.7832 3.73268V3.73268ZM32.353 10.9889L30.3087 0.952062H28.1129C27.6583 0.952062 27.2038 1.26115 27.0522 1.72412L23.2668 10.9889H25.9171L26.4461 9.52234H29.7026L30.0056 10.9889H32.353ZM28.4918 3.6547L29.2481 7.4374H27.1281L28.4918 3.6547Z" fill="white"/>
</svg>
