<svg width="16" height="17" viewBox="0 0 16 17" fill="none" xmlns="http://www.w3.org/2000/svg">
<path d="M0 16.3321V9.33207H7L3.783 12.5521C4.33247 13.1139 4.98837 13.5607 5.71241 13.8664C6.43644 14.172 7.21411 14.3303 8 14.3321C9.23925 14.3302 10.4475 13.9447 11.4589 13.2285C12.4702 12.5123 13.2349 11.5005 13.648 10.3321H13.666C13.78 10.0071 13.867 9.67207 13.925 9.33207H15.937C15.6934 11.2653 14.7527 13.0432 13.2913 14.332C11.83 15.6208 9.9485 16.332 8 16.3321H7.99C6.93982 16.3352 5.89944 16.13 4.9291 15.7283C3.95876 15.3267 3.07772 14.7365 2.337 13.9921L0 16.3321ZM2.074 7.33207H0.0619998C0.305476 5.39954 1.24564 3.62222 2.70616 2.33348C4.16667 1.04473 6.04719 0.333107 7.995 0.332071H8C9.05036 0.328745 10.0909 0.533857 11.0615 0.935527C12.032 1.3372 12.9132 1.92744 13.654 2.67207L16 0.332071V7.33207H9L12.222 4.11207C11.672 3.54955 11.0153 3.10238 10.2903 2.79674C9.56537 2.4911 8.78674 2.33313 8 2.33207C6.76074 2.3339 5.55246 2.71941 4.54114 3.43564C3.52982 4.15188 2.76508 5.16369 2.352 6.33207H2.334C2.219 6.65707 2.132 6.99207 2.075 7.33207H2.074Z" fill="#1A1A1A"/>
</svg>
