<svg width="16" height="4" viewBox="0 0 16 4" fill="none" xmlns="http://www.w3.org/2000/svg">
<path fill-rule="evenodd" clip-rule="evenodd" d="M0 3C0 2.44772 0.447715 2 1 2H15C15.5523 2 16 2.44772 16 3C16 3.55228 15.5523 4 15 4H1C0.447715 4 0 3.55228 0 3Z" fill="#FF0000"/>
<path fill-rule="evenodd" clip-rule="evenodd" d="M4.77778 1.33333C4.77778 0.596952 5.37473 -1.19209e-07 6.11111 0L9.88889 3.57628e-07C10.6253 4.17233e-07 11.2222 0.596954 11.2222 1.33333C11.2222 1.70152 11.5207 2 11.8889 2H12V4H11.8889C10.6463 4 9.60226 3.15015 9.30623 2L6.69377 2C6.39774 3.15015 5.35367 4 4.11111 4H4V2L4.11111 2C4.4793 2 4.77778 1.70152 4.77778 1.33333Z" fill="#FF0000"/>
</svg>
