<svg width="18" height="19" viewBox="0 0 18 19" fill="none" xmlns="http://www.w3.org/2000/svg">
<path d="M16 18.7832H7C6.46957 18.7832 5.96086 18.5725 5.58579 18.1974C5.21071 17.8223 5 17.3136 5 16.7832V12.7832H7V16.7832H16V2.7832H7V6.7832H5V2.7832C5 2.25277 5.21071 1.74406 5.58579 1.36899C5.96086 0.993917 6.46957 0.783203 7 0.783203H16C16.5304 0.783203 17.0391 0.993917 17.4142 1.36899C17.7893 1.74406 18 2.25277 18 2.7832V16.7832C18 17.3136 17.7893 17.8223 17.4142 18.1974C17.0391 18.5725 16.5304 18.7832 16 18.7832ZM9 13.7832V10.7832H0V8.7832H9V5.7832L14 9.7832L9 13.7832Z" fill="#CCCCCC"/>
</svg>
