<svg width="31" height="19" viewBox="0 0 31 19" fill="none" xmlns="http://www.w3.org/2000/svg">
<path fill-rule="evenodd" clip-rule="evenodd" d="M15.2369 16.2751C13.6698 17.5961 11.6369 18.3935 9.4156 18.3935C4.45916 18.3935 0.441162 14.4233 0.441162 9.52585C0.441162 4.62838 4.45916 0.658203 9.4156 0.658203C11.6369 0.658203 13.6698 1.45565 15.2369 2.77662C16.8041 1.45566 18.8369 0.658226 21.0582 0.658226C26.0147 0.658226 30.0327 4.62841 30.0327 9.52587C30.0327 14.4233 26.0147 18.3935 21.0582 18.3935C18.8369 18.3935 16.804 17.5961 15.2369 16.2751Z" fill="#ED0006"/>
<path fill-rule="evenodd" clip-rule="evenodd" d="M15.2368 16.2752C17.1665 14.6487 18.39 12.2285 18.39 9.52585C18.39 6.82325 17.1665 4.40302 15.2368 2.77653C16.8039 1.45561 18.8367 0.658203 21.058 0.658203C26.0145 0.658203 30.0325 4.62838 30.0325 9.52585C30.0325 14.4233 26.0145 18.3935 21.058 18.3935C18.8367 18.3935 16.8039 17.5961 15.2368 16.2752Z" fill="#F9A000"/>
<path fill-rule="evenodd" clip-rule="evenodd" d="M15.2369 16.2758C17.1665 14.6494 18.39 12.2292 18.39 9.52659C18.39 6.82403 17.1665 4.40383 15.2369 2.77734C13.3073 4.40383 12.0837 6.82403 12.0837 9.52659C12.0837 12.2292 13.3073 14.6494 15.2369 16.2758Z" fill="#FF5E00"/>
</svg>
