<svg width="18" height="17" viewBox="0 0 18 17" fill="none" xmlns="http://www.w3.org/2000/svg">
<path d="M9.34454 13.9007L13.2852 16.3969C13.7889 16.7157 14.4139 16.2413 14.2645 15.6532L13.1264 11.1751C13.0943 11.0503 13.098 10.9191 13.1371 10.7963C13.1763 10.6736 13.2492 10.5644 13.3477 10.4813L16.8814 7.5407C17.3452 7.15445 17.1064 6.38382 16.5095 6.34507L11.8952 6.04507C11.7709 6.03626 11.6517 5.99234 11.5515 5.91843C11.4513 5.84451 11.3741 5.74365 11.3289 5.62757L9.60766 1.29382C9.56079 1.17066 9.4776 1.06465 9.3691 0.989852C9.26061 0.915054 9.13194 0.875 9.00016 0.875C8.86838 0.875 8.73972 0.915054 8.63122 0.989852C8.52273 1.06465 8.43953 1.17066 8.39266 1.29382L6.67141 5.62757C6.62636 5.74376 6.54921 5.84476 6.44895 5.91879C6.3487 5.99282 6.22947 6.03683 6.10516 6.0457L1.49079 6.3457C0.894538 6.38382 0.654538 7.15445 1.11891 7.5407L4.65266 10.4819C4.75098 10.565 4.82389 10.6741 4.86303 10.7967C4.90216 10.9193 4.90594 11.0504 4.87391 11.1751L3.81891 15.3282C3.63954 16.0338 4.39016 16.6032 4.99391 16.2201L8.65641 13.9007C8.75935 13.8353 8.87881 13.8005 9.00079 13.8005C9.12277 13.8005 9.24222 13.8353 9.34516 13.9007H9.34454Z" fill="#FF8A00"/>
</svg>
