<svg width="15" height="15" viewBox="0 0 15 15" fill="none" xmlns="http://www.w3.org/2000/svg">
<path d="M7.81008 12.4106L11.3566 14.6573C11.81 14.9441 12.3725 14.5172 12.2381 13.9879L11.2138 9.95756C11.1848 9.8453 11.1882 9.72715 11.2234 9.6167C11.2586 9.50624 11.3243 9.40797 11.4129 9.33319L14.5933 6.68663C15.0106 6.339 14.7958 5.64544 14.2586 5.61056L10.1056 5.34056C9.99383 5.33263 9.88657 5.2931 9.79635 5.22658C9.70613 5.16006 9.63666 5.06928 9.59602 4.96481L8.0469 1.06444C8.00471 0.953592 7.92984 0.858185 7.83219 0.790867C7.73455 0.723549 7.61875 0.6875 7.50015 0.6875C7.38155 0.6875 7.26574 0.723549 7.1681 0.790867C7.07046 0.858185 6.99558 0.953592 6.9534 1.06444L5.40427 4.96481C5.36372 5.06939 5.29429 5.16028 5.20406 5.22691C5.11383 5.29354 5.00652 5.33315 4.89465 5.34113L0.741709 5.61113C0.205084 5.64544 -0.0109155 6.339 0.407022 6.68663L3.5874 9.33375C3.67588 9.40849 3.7415 9.50666 3.77673 9.617C3.81195 9.72734 3.81534 9.84538 3.78652 9.95756L2.83702 13.6954C2.67558 14.3304 3.35115 14.8429 3.89452 14.4981L7.19077 12.4106C7.28342 12.3517 7.39093 12.3204 7.50071 12.3204C7.61049 12.3204 7.718 12.3517 7.81065 12.4106H7.81008Z" fill="#FF8A00"/>
</svg>
