<svg width="19" height="14" viewBox="0 0 19 14" fill="none" xmlns="http://www.w3.org/2000/svg">
<path d="M9.5 0.541016C3.25 0.541016 0.75 7.00007 0.75 7.00007C0.75 7.00007 3.25 13.4577 9.5 13.4577C15.75 13.4577 18.25 7.00007 18.25 7.00007C18.25 7.00007 15.75 0.541016 9.5 0.541016V0.541016Z" stroke="#1A1A1A" stroke-width="1.5" stroke-linecap="round" stroke-linejoin="round"/>
<path d="M9.5 10.125C10.3288 10.125 11.1237 9.79576 11.7097 9.20971C12.2958 8.62366 12.625 7.8288 12.625 7C12.625 6.1712 12.2958 5.37634 11.7097 4.79029C11.1237 4.20424 10.3288 3.875 9.5 3.875C8.6712 3.875 7.87634 4.20424 7.29029 4.79029C6.70424 5.37634 6.375 6.1712 6.375 7C6.375 7.8288 6.70424 8.62366 7.29029 9.20971C7.87634 9.79576 8.6712 10.125 9.5 10.125V10.125Z" stroke="#1A1A1A" stroke-width="1.5" stroke-linecap="round" stroke-linejoin="round"/>
</svg>
