<svg width="25" height="25" viewBox="0 0 25 25" fill="none" xmlns="http://www.w3.org/2000/svg">
<path d="M12.0024 24.0539C8.72244 24.0539 8.33578 24.0365 7.05577 23.9805C6.0576 23.9477 5.07235 23.7448 4.14244 23.3805C3.34668 23.0708 2.62401 22.5991 2.02033 21.9952C1.41665 21.3912 0.945153 20.6684 0.635775 19.8725C0.285516 18.9392 0.0965985 17.9532 0.0771081 16.9565C0.0024414 15.6792 0.00244141 15.2605 0.00244141 12.0059C0.00244141 8.71653 0.0197747 8.33253 0.0771081 7.05919C0.0970249 6.06389 0.285936 5.0792 0.635775 4.14719C0.944798 3.35031 1.41662 2.62663 2.0211 2.02238C2.62558 1.41812 3.34944 0.94658 4.14644 0.637859C5.07797 0.286129 6.0629 0.0967183 7.05844 0.0778592C8.33177 0.00585924 8.75044 0.00585938 12.0024 0.00585938C15.3091 0.00585938 15.6891 0.0231926 16.9491 0.0778592C17.9464 0.0965259 18.9358 0.285859 19.8691 0.637859C20.6659 0.946937 21.3896 1.41861 21.994 2.02281C22.5984 2.62702 23.0704 3.35052 23.3798 4.14719C23.7358 5.09386 23.9264 6.09386 23.9411 7.10319C24.0158 8.38053 24.0158 8.79786 24.0158 12.0512C24.0158 15.3045 23.9971 15.7312 23.9411 16.9939C23.9212 17.9915 23.7318 18.9784 23.3811 19.9125C23.0709 20.709 22.5986 21.4322 21.994 22.0363C21.3894 22.6405 20.6658 23.1123 19.8691 23.4219C18.9358 23.7712 17.9504 23.9605 16.9544 23.9805C15.6811 24.0539 15.2638 24.0539 12.0024 24.0539ZM11.9571 2.11653C8.69578 2.11653 8.35711 2.13253 7.08377 2.18986C6.32331 2.1998 5.57018 2.34006 4.85711 2.60453C4.33702 2.80388 3.86447 3.11001 3.46993 3.50317C3.07539 3.89633 2.76761 4.3678 2.56644 4.88719C2.29977 5.60719 2.15977 6.36853 2.15177 7.13653C2.08111 8.42852 2.08111 8.76719 2.08111 12.0059C2.08111 15.2059 2.09311 15.5939 2.15177 16.8779C2.16377 17.6379 2.30377 18.3912 2.56644 19.1045C2.97444 20.1539 3.80644 20.9832 4.85844 21.3859C5.57059 21.652 6.32357 21.7923 7.08377 21.8005C8.37444 21.8752 8.71444 21.8752 11.9571 21.8752C15.2278 21.8752 15.5664 21.8592 16.8291 21.8005C17.5896 21.7913 18.3429 21.651 19.0558 21.3859C19.5731 21.185 20.0429 20.8787 20.4355 20.4864C20.828 20.0941 21.1346 19.6244 21.3358 19.1072C21.6024 18.3872 21.7424 17.6245 21.7504 16.8565H21.7651C21.8224 15.5819 21.8224 15.2419 21.8224 11.9845C21.8224 8.72719 21.8078 8.38453 21.7504 7.11119C21.7384 6.3518 21.5982 5.5999 21.3358 4.88719C21.1351 4.36925 20.8287 3.8988 20.4361 3.50579C20.0436 3.11279 19.5735 2.80585 19.0558 2.60453C18.3424 2.33786 17.5891 2.19919 16.8291 2.18986C15.5398 2.11653 15.2024 2.11653 11.9571 2.11653ZM12.0024 18.1645C10.7832 18.1653 9.59112 17.8045 8.57696 17.1277C7.56279 16.451 6.77212 15.4886 6.30492 14.3625C5.83773 13.2363 5.71502 11.9969 5.9523 10.8009C6.18958 9.60501 6.77619 8.50631 7.63795 7.64381C8.49971 6.7813 9.5979 6.19374 10.7936 5.95542C11.9893 5.71711 13.2289 5.83875 14.3555 6.30497C15.482 6.77118 16.445 7.56103 17.1227 8.5746C17.8003 9.58818 18.1622 10.78 18.1624 11.9992C18.1603 13.6328 17.5108 15.1989 16.3562 16.3545C15.2016 17.5101 13.636 18.161 12.0024 18.1645ZM12.0024 7.99653C11.2113 7.99653 10.438 8.23112 9.78016 8.67065C9.12236 9.11017 8.60967 9.73489 8.30692 10.4658C8.00417 11.1967 7.92496 12.001 8.0793 12.7769C8.23364 13.5528 8.6146 14.2655 9.17402 14.825C9.73343 15.3844 10.4462 15.7653 11.2221 15.9197C11.998 16.074 12.8023 15.9948 13.5332 15.692C14.2641 15.3893 14.8888 14.8766 15.3283 14.2188C15.7678 13.561 16.0024 12.7877 16.0024 11.9965C16 10.9364 15.5778 9.92043 14.8281 9.17082C14.0785 8.42121 13.0626 7.99899 12.0024 7.99653ZM18.4024 7.04586C18.2137 7.04516 18.0269 7.00729 17.8528 6.93441C17.6787 6.86153 17.5206 6.75507 17.3877 6.6211C17.1191 6.35055 16.969 5.9844 16.9704 5.60319C16.9719 5.22199 17.1246 4.85696 17.3952 4.58841C17.6658 4.31985 18.0319 4.16978 18.4131 4.17119C18.7943 4.17261 19.1593 4.3254 19.4279 4.59595C19.6964 4.8665 19.8465 5.23265 19.8451 5.61386C19.8437 5.99506 19.6909 6.36009 19.4204 6.62865C19.1498 6.8972 18.7836 7.04727 18.4024 7.04586Z" fill="white"/>
</svg>
