<svg width="39" height="40" viewBox="0 0 39 40" fill="none" xmlns="http://www.w3.org/2000/svg">
<path d="M33.0183 15.2101V13.6723C33.0183 9.9916 31.7157 6.57143 29.3544 4.03361C26.9342 1.42857 23.6065 0 19.9762 0H18.7073C15.0771 0 11.7494 1.42857 9.32918 4.03361C6.96784 6.57143 5.66532 9.9916 5.66532 13.6723V15.2101C2.79977 15.4034 0.522461 17.7899 0.522461 20.7059V23.1092C0.522461 26.1429 2.99305 28.6134 6.02666 28.6134H9.1275C9.68213 28.6134 10.1359 28.1597 10.1359 27.605V16.2017C10.1359 15.6471 9.68213 15.1933 9.1275 15.1933H7.68213V13.6723C7.68213 7.02521 12.4216 2.01681 18.6989 2.01681H19.9678C26.2536 2.01681 30.9846 7.02521 30.9846 13.6723V15.1933H29.5393C28.9847 15.1933 28.5309 15.6471 28.5309 16.2017V27.5966C28.5309 28.1513 28.9847 28.605 29.5393 28.605H30.951C30.5393 33.8655 26.9174 35.084 25.2367 35.3613C24.7746 33.9412 23.4384 32.916 21.867 32.916H19.346C17.3964 32.916 15.8082 34.5042 15.8082 36.4538C15.8082 38.4034 17.3964 40 19.346 40H21.8754C23.5057 40 24.8754 38.8908 25.2872 37.395C26.1107 37.2773 27.4132 36.9832 28.7073 36.2269C30.5309 35.1597 32.6905 32.9832 32.9762 28.5966C35.8586 28.4202 38.1443 26.0252 38.1443 23.1008V20.6975C38.1527 17.7899 35.8838 15.395 33.0183 15.2101ZM8.13591 26.5882H6.04347C4.1191 26.5882 2.55607 25.0252 2.55607 23.1008V20.6975C2.55607 18.7731 4.1191 17.2101 6.04347 17.2101H8.13591V26.5882ZM21.8754 37.9832H19.346C18.5057 37.9832 17.825 37.3025 17.825 36.4622C17.825 35.6218 18.5057 34.9412 19.346 34.9412H21.8754C22.7157 34.9412 23.3964 35.6218 23.3964 36.4622C23.3964 37.3025 22.7157 37.9832 21.8754 37.9832ZM36.1359 23.1008C36.1359 25.0252 34.5729 26.5882 32.6485 26.5882H30.5561V17.2101H32.6485C34.5729 17.2101 36.1359 18.7731 36.1359 20.6975V23.1008Z" fill="#00B307"/>
</svg>
