<svg width="15" height="18" viewBox="0 0 15 18" fill="none" xmlns="http://www.w3.org/2000/svg">
<path d="M15 7.36364C15 13.0909 7.5 18 7.5 18C7.5 18 0 13.0909 0 7.36364C2.96403e-08 5.41068 0.790176 3.53771 2.1967 2.15676C3.60322 0.775809 5.51088 0 7.5 0C9.48912 0 11.3968 0.775809 12.8033 2.15676C14.2098 3.53771 15 5.41068 15 7.36364Z" stroke="#666666" stroke-linecap="round" stroke-linejoin="round"/>
<path d="M7.5 9.81827C8.88071 9.81827 10 8.71933 10 7.36373C10 6.00812 8.88071 4.90918 7.5 4.90918C6.11929 4.90918 5 6.00812 5 7.36373C5 8.71933 6.11929 9.81827 7.5 9.81827Z" stroke="#666666" stroke-linecap="round" stroke-linejoin="round"/>
</svg>
