<svg width="31" height="19" viewBox="0 0 31 19" fill="none" xmlns="http://www.w3.org/2000/svg">
<path fill-rule="evenodd" clip-rule="evenodd" d="M15.2371 16.2751C13.67 17.5961 11.6372 18.3935 9.41585 18.3935C4.4594 18.3935 0.441406 14.4233 0.441406 9.52585C0.441406 4.62838 4.4594 0.658203 9.41585 0.658203C11.6372 0.658203 13.67 1.45565 15.2372 2.77662C16.8043 1.45566 18.8371 0.658226 21.0585 0.658226C26.0149 0.658226 30.0329 4.62841 30.0329 9.52587C30.0329 14.4233 26.0149 18.3935 21.0585 18.3935C18.8371 18.3935 16.8043 17.5961 15.2371 16.2751Z" fill="#ED0006"/>
<path fill-rule="evenodd" clip-rule="evenodd" d="M15.2373 16.2752C17.1669 14.6487 18.3905 12.2285 18.3905 9.52585C18.3905 6.82325 17.1669 4.40302 15.2373 2.77653C16.8044 1.45561 18.8372 0.658203 21.0585 0.658203C26.015 0.658203 30.033 4.62838 30.033 9.52585C30.033 14.4233 26.015 18.3935 21.0585 18.3935C18.8372 18.3935 16.8044 17.5961 15.2373 16.2752Z" fill="#F9A000"/>
<path fill-rule="evenodd" clip-rule="evenodd" d="M15.2371 16.2758C17.1667 14.6494 18.3903 12.2292 18.3903 9.52659C18.3903 6.82403 17.1667 4.40383 15.2371 2.77734C13.3075 4.40383 12.084 6.82403 12.084 9.52659C12.084 12.2292 13.3075 14.6494 15.2371 16.2758Z" fill="#FF5E00"/>
</svg>
