<svg width="28" height="25" viewBox="0 0 28 25" fill="none" xmlns="http://www.w3.org/2000/svg">
<path d="M22.5187 16.6653V10.5385C22.5187 6.7767 20.1917 3.62755 16.1338 2.79431V1.96107C16.1338 0.944032 15.169 0.123047 13.9914 0.123047C12.8137 0.123047 11.8773 0.944032 11.8773 1.96107V2.79431C7.80519 3.62755 5.49247 6.76445 5.49247 10.5385V16.6653L3.64796 18.246C2.75409 19.018 3.37838 20.3413 4.64116 20.3413H23.3274C24.5902 20.3413 25.2287 19.018 24.3348 18.246L22.5187 16.6653ZM13.9914 24.0174C15.5521 24.0174 16.8291 22.9146 16.8291 21.5667H11.1537C11.1537 22.9146 12.4164 24.0174 13.9914 24.0174ZM6.58498 2.85558C7.1809 2.38995 7.19508 1.59347 6.62754 1.10333C6.08838 0.637694 5.20869 0.625441 4.65534 1.07882C2.22911 2.99037 0.554871 5.58811 0.015708 8.50445C-0.111988 9.25191 0.554871 9.92585 1.43456 9.92585C2.1156 9.92585 2.71152 9.49698 2.82503 8.90881C3.25068 6.53163 4.61278 4.41177 6.58498 2.85558ZM23.37 1.07882C22.8024 0.625441 21.9227 0.637694 21.3836 1.10333C20.816 1.59347 20.8444 2.37769 21.4261 2.84333C23.3841 4.39952 24.7604 6.51938 25.1861 8.89656C25.2854 9.48473 25.8813 9.9136 26.5766 9.9136C27.4421 9.9136 28.1231 9.23966 27.9812 8.49219C27.4421 5.58811 25.782 3.00262 23.37 1.07882Z" fill="white"/>
</svg>
