<svg width="14" height="16" viewBox="0 0 14 16" fill="none" xmlns="http://www.w3.org/2000/svg">
<g filter="url(#filter0_d_94_9268)">
<path fill-rule="evenodd" clip-rule="evenodd" d="M2.83003 12.4727C2.55303 12.0967 2.21503 11.3277 1.61403 10.3937C1.27403 9.86573 0.429026 8.87073 0.178026 8.36573C-0.0399737 7.91973 -0.0169738 7.71973 0.0350262 7.34973C0.127026 6.69173 0.757026 6.17973 1.42903 6.24773C1.93703 6.29973 2.36803 6.65873 2.75503 6.99773C2.98903 7.20273 3.27703 7.59973 3.45003 7.82373C3.61003 8.02973 3.64903 8.11373 3.81903 8.35773C4.04403 8.67973 4.11403 8.83773 4.02903 8.48473C3.95903 7.96473 3.84503 7.07673 3.68103 6.29173C3.55603 5.69673 3.52503 5.60373 3.40603 5.14673C3.28003 4.66073 3.21603 4.31973 3.09603 3.80473C3.01503 3.43973 2.86603 2.69473 2.82603 2.27473C2.77103 1.70173 2.74203 0.767734 3.08503 0.337734C3.35403 0.00173378 3.97103 -0.100266 4.35403 0.107734C4.85503 0.377734 5.14003 1.15773 5.27003 1.46973C5.50403 2.02973 5.64903 2.67573 5.77503 3.52473C5.93503 4.60473 6.23103 6.10473 6.24103 6.41973C6.26403 6.03373 6.17403 5.21973 6.23703 4.84773C6.29303 4.51173 6.55703 4.12073 6.88803 4.01473C7.16803 3.92573 7.49603 3.89373 7.78403 3.95773C8.09103 4.02473 8.41403 4.25873 8.53403 4.47973C8.88803 5.13373 8.89503 6.46973 8.91003 6.39973C8.99403 6.00473 8.98003 5.11073 9.18803 4.73973C9.32503 4.49373 9.67403 4.27273 9.86003 4.23673C10.147 4.18273 10.5 4.16673 10.803 4.22873C11.047 4.27973 11.376 4.59073 11.465 4.73873C11.679 5.09873 11.8 6.11873 11.836 6.47673C11.851 6.62373 11.909 6.06573 12.123 5.70573C12.52 5.03573 13.926 4.90573 13.98 6.37573C14.004 7.05973 14 7.02873 14 7.48973C14 8.03173 13.988 8.35773 13.96 8.74973C13.93 9.16873 13.846 10.1157 13.724 10.5747C13.64 10.8907 13.361 11.5997 13.086 12.0247C13.086 12.0247 12.035 13.3347 11.92 13.9247C11.805 14.5147 11.843 14.5187 11.82 14.9367C11.798 15.3537 11.939 15.9027 11.939 15.9027C11.939 15.9027 11.154 16.0117 10.732 15.9397C10.349 15.8737 9.87503 15.0577 9.75303 14.8087C9.58503 14.4647 9.22603 14.5307 9.08603 14.7847C8.86603 15.1857 8.39203 15.9057 8.05703 15.9507C7.40403 16.0387 6.04703 15.9837 4.98703 15.9717C4.98703 15.9717 5.16703 14.9117 4.76403 14.5487C4.46603 14.2777 3.95203 13.7267 3.64403 13.4387L2.83103 12.4727H2.83003Z" fill="white"/>
<path fill-rule="evenodd" clip-rule="evenodd" d="M2.83003 12.4727C2.55303 12.0967 2.21503 11.3277 1.61403 10.3937C1.27403 9.86573 0.429026 8.87073 0.178026 8.36573C-0.0399737 7.91973 -0.0169738 7.71973 0.0350262 7.34973C0.127026 6.69173 0.757026 6.17973 1.42903 6.24773C1.93703 6.29973 2.36803 6.65873 2.75503 6.99773C2.98903 7.20273 3.27703 7.59973 3.45003 7.82373C3.61003 8.02973 3.64903 8.11373 3.81903 8.35773C4.04403 8.67973 4.11403 8.83773 4.02903 8.48473C3.95903 7.96473 3.84503 7.07673 3.68103 6.29173C3.55603 5.69673 3.52503 5.60373 3.40603 5.14673C3.28003 4.66073 3.21603 4.31973 3.09603 3.80473C3.01503 3.43973 2.86603 2.69473 2.82603 2.27473C2.77103 1.70173 2.74203 0.767734 3.08503 0.337734C3.35403 0.00173378 3.97103 -0.100266 4.35403 0.107734C4.85503 0.377734 5.14003 1.15773 5.27003 1.46973C5.50403 2.02973 5.64903 2.67573 5.77503 3.52473C5.93503 4.60473 6.23103 6.10473 6.24103 6.41973C6.26403 6.03373 6.17403 5.21973 6.23703 4.84773C6.29303 4.51173 6.55703 4.12073 6.88803 4.01473C7.16803 3.92573 7.49603 3.89373 7.78403 3.95773C8.09103 4.02473 8.41403 4.25873 8.53403 4.47973C8.88803 5.13373 8.89503 6.46973 8.91003 6.39973C8.99403 6.00473 8.98003 5.11073 9.18803 4.73973C9.32503 4.49373 9.67403 4.27273 9.86003 4.23673C10.147 4.18273 10.5 4.16673 10.803 4.22873C11.047 4.27973 11.376 4.59073 11.465 4.73873C11.679 5.09873 11.8 6.11873 11.836 6.47673C11.851 6.62373 11.909 6.06573 12.123 5.70573C12.52 5.03573 13.926 4.90573 13.98 6.37573C14.004 7.05973 14 7.02873 14 7.48973C14 8.03173 13.988 8.35773 13.96 8.74973C13.93 9.16873 13.846 10.1157 13.724 10.5747C13.64 10.8907 13.361 11.5997 13.086 12.0247C13.086 12.0247 12.035 13.3347 11.92 13.9247C11.805 14.5147 11.843 14.5187 11.82 14.9367C11.798 15.3537 11.939 15.9027 11.939 15.9027C11.939 15.9027 11.154 16.0117 10.732 15.9397C10.349 15.8737 9.87503 15.0577 9.75303 14.8087C9.58503 14.4647 9.22603 14.5307 9.08603 14.7847C8.86603 15.1857 8.39203 15.9057 8.05703 15.9507C7.40403 16.0387 6.04703 15.9837 4.98703 15.9717C4.98703 15.9717 5.16703 14.9117 4.76403 14.5487C4.46603 14.2777 3.95203 13.7267 3.64403 13.4387L2.83103 12.4727H2.83003Z" stroke="black" stroke-width="0.75" stroke-linecap="round" stroke-linejoin="round"/>
</g>
<path fill-rule="evenodd" clip-rule="evenodd" d="M6.875 9.5C6.875 9.40054 6.83549 9.30516 6.76517 9.23483C6.69484 9.16451 6.59946 9.125 6.5 9.125C6.40054 9.125 6.30516 9.16451 6.23483 9.23483C6.16451 9.30516 6.125 9.40054 6.125 9.5V12.5C6.125 12.5995 6.16451 12.6948 6.23483 12.7652C6.30516 12.8355 6.40054 12.875 6.5 12.875C6.59946 12.875 6.69484 12.8355 6.76517 12.7652C6.83549 12.6948 6.875 12.5995 6.875 12.5V9.5ZM8.5 9.125C8.707 9.125 8.875 9.293 8.875 9.5V12.5C8.875 12.5995 8.83549 12.6948 8.76517 12.7652C8.69484 12.8355 8.59946 12.875 8.5 12.875C8.40054 12.875 8.30516 12.8355 8.23483 12.7652C8.16451 12.6948 8.125 12.5995 8.125 12.5V9.5C8.125 9.293 8.293 9.125 8.5 9.125ZM10.5 9.125C10.707 9.125 10.875 9.293 10.875 9.5V12.5C10.875 12.5995 10.8355 12.6948 10.7652 12.7652C10.6948 12.8355 10.5995 12.875 10.5 12.875C10.4005 12.875 10.3052 12.8355 10.2348 12.7652C10.1645 12.6948 10.125 12.5995 10.125 12.5V9.5C10.125 9.293 10.293 9.125 10.5 9.125Z" fill="black"/>
<defs>
<filter id="filter0_d_94_9268" x="-2.37506" y="-1.375" width="18.7502" height="20.75" filterUnits="userSpaceOnUse" color-interpolation-filters="sRGB">
<feFlood flood-opacity="0" result="BackgroundImageFix"/>
<feColorMatrix in="SourceAlpha" type="matrix" values="0 0 0 0 0 0 0 0 0 0 0 0 0 0 0 0 0 0 127 0" result="hardAlpha"/>
<feOffset dy="1"/>
<feGaussianBlur stdDeviation="1"/>
<feColorMatrix type="matrix" values="0 0 0 0 0 0 0 0 0 0 0 0 0 0 0 0 0 0 0.24 0"/>
<feBlend mode="normal" in2="BackgroundImageFix" result="effect1_dropShadow_94_9268"/>
<feBlend mode="normal" in="SourceGraphic" in2="effect1_dropShadow_94_9268" result="shape"/>
</filter>
</defs>
</svg>
