<svg width="16" height="15" viewBox="0 0 16 15" fill="none" xmlns="http://www.w3.org/2000/svg">
<path d="M8.30996 11.9106L11.8565 14.1573C12.3099 14.4441 12.8724 14.0172 12.738 13.4879L11.7136 9.45756C11.6847 9.3453 11.6881 9.22715 11.7233 9.1167C11.7585 9.00624 11.8242 8.90797 11.9128 8.83319L15.0931 6.18663C15.5105 5.839 15.2956 5.14544 14.7585 5.11056L10.6055 4.84056C10.4937 4.83263 10.3865 4.7931 10.2962 4.72658C10.206 4.66006 10.1365 4.56928 10.0959 4.46481L8.54677 0.564439C8.50459 0.453592 8.42971 0.358185 8.33207 0.290867C8.23443 0.223549 8.11863 0.1875 8.00002 0.1875C7.88142 0.1875 7.76562 0.223549 7.66798 0.290867C7.57033 0.358185 7.49546 0.453592 7.45327 0.564439L5.90415 4.46481C5.8636 4.56939 5.79416 4.66028 5.70394 4.72691C5.61371 4.79354 5.5064 4.83315 5.39452 4.84113L1.24159 5.11113C0.704962 5.14544 0.488962 5.839 0.9069 6.18663L4.08727 8.83375C4.17576 8.90849 4.24138 9.00666 4.2766 9.117C4.31182 9.22734 4.31522 9.34538 4.2864 9.45756L3.3369 13.1954C3.17546 13.8304 3.85102 14.3429 4.3944 13.9981L7.69065 11.9106C7.78329 11.8517 7.8908 11.8204 8.00059 11.8204C8.11037 11.8204 8.21788 11.8517 8.31052 11.9106H8.30996Z" fill="#FF8A00"/>
</svg>
