<svg width="21" height="21" viewBox="0 0 21 21" fill="none" xmlns="http://www.w3.org/2000/svg">
<path d="M13.4359 1.375C14.9193 1.77396 16.2718 2.55567 17.358 3.64184C18.4441 4.72801 19.2258 6.08051 19.6248 7.56388" stroke="#1A1A1A" stroke-width="1.5" stroke-linecap="round" stroke-linejoin="round"/>
<path d="M12.5306 4.75684C13.4205 4.99622 14.2318 5.46518 14.8833 6.11675C15.5349 6.76832 16.0039 7.57964 16.2433 8.46946" stroke="#1A1A1A" stroke-width="1.5" stroke-linecap="round" stroke-linejoin="round"/>
<path d="M6.115 10.6522C7.02238 12.5078 8.5263 14.0053 10.3859 14.9047C10.522 14.9692 10.6727 14.997 10.8229 14.9855C10.9731 14.974 11.1178 14.9235 11.2425 14.839L13.9812 13.0138C14.1022 12.933 14.2414 12.8837 14.3862 12.8702C14.5311 12.8568 14.677 12.8797 14.8107 12.9368L19.9339 15.133C20.1079 15.207 20.2532 15.3354 20.3479 15.4991C20.4426 15.6627 20.4815 15.8527 20.4589 16.0404C20.2967 17.3074 19.6784 18.4718 18.7196 19.3158C17.7608 20.1597 16.5273 20.6253 15.25 20.6254C11.3049 20.6254 7.52139 19.0582 4.73179 16.2686C1.94218 13.479 0.375 9.69551 0.375 5.75041C0.375118 4.4732 0.840745 3.23982 1.68471 2.28118C2.52867 1.32254 3.6931 0.704375 4.96 0.542409C5.14771 0.519772 5.33769 0.55873 5.50134 0.653417C5.66499 0.748103 5.79345 0.893393 5.86738 1.06741L8.06537 6.19491C8.1219 6.32739 8.14485 6.47178 8.13218 6.61527C8.11951 6.75875 8.07162 6.89688 7.99275 7.01741L6.17275 9.79816C6.09015 9.92338 6.04141 10.0679 6.03129 10.2175C6.02117 10.3672 6.05001 10.517 6.115 10.6522V10.6522Z" stroke="#1A1A1A" stroke-width="1.5" stroke-linecap="round" stroke-linejoin="round"/>
</svg>
