<svg width="33" height="15" viewBox="0 0 33 15" fill="none" xmlns="http://www.w3.org/2000/svg">
<path fill-rule="evenodd" clip-rule="evenodd" d="M6.50627 2.04333C6.12856 2.50908 5.52422 2.87643 4.91988 2.82395C4.84434 2.19421 5.14022 1.52511 5.48645 1.11184C5.86416 0.632975 6.52516 0.291864 7.06025 0.265625C7.1232 0.921606 6.87769 1.56447 6.50627 2.04333ZM7.05396 2.94857C6.52155 2.91664 6.03575 3.11542 5.64335 3.27597C5.39084 3.3793 5.177 3.46679 5.01432 3.46679C4.83176 3.46679 4.6091 3.37462 4.3591 3.27113C4.03152 3.13552 3.657 2.98049 3.26426 2.98793C2.36405 3.00105 1.52679 3.53239 1.06724 4.37861C0.122958 6.07104 0.821725 8.57688 1.73453 9.95444C2.18149 10.6367 2.71658 11.3845 3.42164 11.3582C3.73182 11.346 3.95495 11.2474 4.18587 11.1453C4.45172 11.0277 4.72789 10.9056 5.15911 10.9056C5.57538 10.9056 5.83948 11.0245 6.09299 11.1387C6.33404 11.2473 6.56553 11.3515 6.90917 11.3451C7.63942 11.332 8.09897 10.6629 8.54592 9.98068C9.02826 9.24847 9.24023 8.53388 9.2724 8.42543L9.27617 8.41289C9.2754 8.41208 9.26944 8.40924 9.25892 8.40423C9.09769 8.32731 7.86527 7.7394 7.85345 6.16287C7.84159 4.83961 8.83097 4.16917 8.98671 4.06363C8.99619 4.0572 9.00258 4.05287 9.00547 4.05062C8.37595 3.07976 7.3939 2.97481 7.05396 2.94857ZM12.1091 11.273V1.04622H15.7917C17.6929 1.04622 19.0212 2.41066 19.0212 4.40484C19.0212 6.39902 17.6677 7.77658 15.7414 7.77658H13.6325V11.273H12.1091ZM13.6324 2.38445H15.3888C16.7108 2.38445 17.4662 3.11915 17.4662 4.41143C17.4662 5.70371 16.7108 6.44497 15.3825 6.44497H13.6324V2.38445ZM24.0511 10.0463C23.6482 10.8466 22.7606 11.3517 21.8037 11.3517C20.3873 11.3517 19.399 10.4727 19.399 9.14764C19.399 7.83568 20.3558 7.0813 22.1248 6.96978L24.0259 6.85171V6.28756C24.0259 5.45447 23.5034 5.00184 22.5717 5.00184C21.8037 5.00184 21.2435 5.41511 21.1301 6.04485H19.7578C19.8019 4.71977 20.9979 3.75548 22.6158 3.75548C24.3596 3.75548 25.4927 4.70665 25.4927 6.18261V11.273H24.0826V10.0463H24.0511ZM22.2128 10.1381C21.4007 10.1381 20.8845 9.73142 20.8845 9.10824C20.8845 8.46538 21.3819 8.09147 22.3324 8.03243L24.0258 7.92091V8.49818C24.0258 9.45591 23.2452 10.1381 22.2128 10.1381ZM30.17 11.6732C29.5594 13.464 28.8606 14.0544 27.375 14.0544C27.2617 14.0544 26.884 14.0413 26.7958 14.015V12.7883C26.8903 12.8014 27.1232 12.8146 27.2428 12.8146C27.9164 12.8146 28.2941 12.5194 28.527 11.7519L28.6655 11.2993L26.0845 3.85387H27.6772L29.4713 9.89545H29.5028L31.2969 3.85387H32.8455L30.17 11.6732Z" fill="white"/>
</svg>
