<svg width="41" height="20" viewBox="0 0 41 20" fill="none" xmlns="http://www.w3.org/2000/svg">
<path d="M15.5293 19.6767L40.6764 12.0664V15.7061C40.6764 17.899 38.8987 19.6767 36.7058 19.6767H15.5293Z" fill="#FD6020"/>
<path fill-rule="evenodd" clip-rule="evenodd" d="M35.9035 1.05881C37.287 1.05881 38.0479 1.69879 38.0479 2.90765C38.117 3.83207 37.4945 4.61427 36.6644 4.75649L38.5321 7.38753H37.0794L35.4884 4.8276H35.3501V7.38753H34.1741V1.05881H35.9035ZM35.3501 3.97431H35.696C36.4569 3.97431 36.8028 3.61876 36.8028 2.97878C36.8028 2.4099 36.4569 2.05436 35.696 2.05436H35.3501V3.97431ZM30.0929 7.38753H33.4132V6.32089H31.2688V4.61427H33.344V3.54763H31.2688V2.12545H33.4132V1.05881H30.0929V7.38753ZM26.6342 5.32536L25.0432 1.05881H23.798L26.3575 7.52975H26.98L29.5395 1.05881H28.2943L26.6342 5.32536ZM12.592 4.25873C12.592 6.03646 13.9755 7.52976 15.7048 7.52976C16.2582 7.52976 16.7424 7.38754 17.2266 7.17421V5.75203C16.8808 6.17868 16.3965 6.46312 15.8431 6.46312C14.7364 6.46312 13.8371 5.60981 13.8371 4.47206V4.32984C13.7679 3.1921 14.6672 2.19657 15.774 2.12546C16.3274 2.12546 16.8808 2.4099 17.2266 2.83655V1.41437C16.8116 1.12993 16.2582 1.05882 15.774 1.05882C13.9755 0.916603 12.592 2.4099 12.592 4.25873ZM10.4476 3.47653C9.75583 3.1921 9.54831 3.04988 9.54831 2.69433C9.61749 2.26768 9.96336 1.91213 10.3784 1.98324C10.7243 1.98324 11.0701 2.19657 11.3468 2.481L11.9694 1.62769C11.4852 1.20104 10.8626 0.916601 10.2401 0.916601C9.27162 0.845492 8.44153 1.62769 8.37236 2.62322V2.69433C8.37236 3.54764 8.71823 4.04541 9.82501 4.40095C10.1017 4.47206 10.3784 4.61428 10.6551 4.7565C10.8626 4.89872 11.001 5.11204 11.001 5.39648C11.001 5.89425 10.5859 6.3209 10.1709 6.3209H10.1017C9.54831 6.3209 9.06409 5.96535 8.85657 5.46759L8.09566 6.24979C8.5107 7.03199 9.34079 7.45865 10.1709 7.45865C11.2777 7.52976 12.1769 6.67645 12.2461 5.5387V5.32537C12.1769 4.47206 11.831 4.04541 10.4476 3.47653ZM6.43543 7.38753H7.61139V1.05881H6.43543V7.38753ZM0.970703 1.05881H2.70005H3.04592C4.70609 1.12992 6.0204 2.5521 5.95122 4.25872C5.95122 5.18314 5.53618 6.03645 4.84444 6.67644C4.22188 7.1742 3.46096 7.45864 2.70005 7.38753H0.970703V1.05881ZM2.4926 6.32086C3.04599 6.39197 3.66856 6.17864 4.0836 5.8231C4.49864 5.39644 4.70617 4.82757 4.70617 4.18758C4.70617 3.61871 4.49864 3.04984 4.0836 2.62318C3.66856 2.26764 3.04599 2.05431 2.4926 2.12542H2.14673V6.32086H2.4926Z" fill="white"/>
<path fill-rule="evenodd" clip-rule="evenodd" d="M20.7543 0.912109C19.0249 0.912109 17.5723 2.33429 17.5723 4.18313C17.5723 5.96086 18.9557 7.45416 20.7543 7.52527C22.5528 7.59637 23.9363 6.10308 24.0054 4.25424C23.9363 2.4054 22.5528 0.912109 20.7543 0.912109V0.912109Z" fill="#FD6020"/>
</svg>
