<svg width="9" height="11" viewBox="0 0 9 11" fill="none" xmlns="http://www.w3.org/2000/svg">
<path d="M7.70833 5.04102H1.29167C0.785406 5.04102 0.375 5.45142 0.375 5.95768V9.16602C0.375 9.67228 0.785406 10.0827 1.29167 10.0827H7.70833C8.21459 10.0827 8.625 9.67228 8.625 9.16602V5.95768C8.625 5.45142 8.21459 5.04102 7.70833 5.04102Z" stroke="white" stroke-width="0.916667" stroke-linecap="round" stroke-linejoin="round"/>
<path d="M2.2085 5.04102V3.20768C2.2085 2.59989 2.44994 2.017 2.87971 1.58723C3.30948 1.15746 3.89237 0.916016 4.50016 0.916016C5.10795 0.916016 5.69084 1.15746 6.12062 1.58723C6.55039 2.017 6.79183 2.59989 6.79183 3.20768V5.04102" stroke="white" stroke-width="0.916667" stroke-linecap="round" stroke-linejoin="round"/>
</svg>
