<svg width="18" height="19" viewBox="0 0 18 19" fill="none" xmlns="http://www.w3.org/2000/svg">
<path d="M16 18.3477H7C6.46957 18.3477 5.96086 18.1369 5.58579 17.7619C5.21071 17.3868 5 16.8781 5 16.3477V12.3477H7V16.3477H16V2.34766H7V6.34766H5V2.34766C5 1.81722 5.21071 1.30852 5.58579 0.933443C5.96086 0.55837 6.46957 0.347656 7 0.347656H16C16.5304 0.347656 17.0391 0.55837 17.4142 0.933443C17.7893 1.30852 18 1.81722 18 2.34766V16.3477C18 16.8781 17.7893 17.3868 17.4142 17.7619C17.0391 18.1369 16.5304 18.3477 16 18.3477ZM9 13.3477V10.3477H0V8.34766H9V5.34766L14 9.34766L9 13.3477Z" fill="#CCCCCC"/>
</svg>
