<svg width="16" height="17" viewBox="0 0 16 17" fill="none" xmlns="http://www.w3.org/2000/svg">
<path d="M0 16.9258V9.92582H7L3.783 13.1458C4.33247 13.7077 4.98837 14.1545 5.71241 14.4601C6.43644 14.7657 7.21411 14.924 8 14.9258C9.23925 14.924 10.4475 14.5385 11.4589 13.8222C12.4702 13.106 13.2349 12.0942 13.648 10.9258H13.666C13.78 10.6008 13.867 10.2658 13.925 9.92582H15.937C15.6934 11.859 14.7527 13.6369 13.2913 14.9257C11.83 16.2146 9.9485 16.9258 8 16.9258H7.99C6.93982 16.929 5.89944 16.7238 4.9291 16.3221C3.95876 15.9204 3.07772 15.3303 2.337 14.5858L0 16.9258ZM2.074 7.92582H0.0619998C0.305476 5.99329 1.24564 4.21597 2.70616 2.92723C4.16667 1.63848 6.04719 0.926857 7.995 0.925821H8C9.05036 0.922495 10.0909 1.12761 11.0615 1.52928C12.032 1.93095 12.9132 2.52119 13.654 3.26582L16 0.925821V7.92582H9L12.222 4.70582C11.672 4.1433 11.0153 3.69613 10.2903 3.39049C9.56537 3.08485 8.78674 2.92688 8 2.92582C6.76074 2.92765 5.55246 3.31316 4.54114 4.02939C3.52982 4.74563 2.76508 5.75744 2.352 6.92582H2.334C2.219 7.25082 2.132 7.58582 2.075 7.92582H2.074Z" fill="#1A1A1A"/>
</svg>
