<svg width="32" height="30" viewBox="0 0 32 30" fill="none" xmlns="http://www.w3.org/2000/svg">
<path d="M31.2749 3.34308C27.4022 3.34308 21.9311 3.66711 19.1352 6.46154C17.9247 7.67204 17.3202 9.64539 17.4771 11.8789C17.4975 12.174 17.6937 12.4253 17.9756 12.5184C18.256 12.6099 18.5641 12.5241 18.7559 12.2989C20.3108 10.4694 22.2435 9.00318 24.5046 7.9409C24.6964 7.84935 24.9231 7.84206 25.1295 7.91474C25.3111 7.98013 25.4535 8.10363 25.5276 8.26207C25.6816 8.5876 25.6322 9.01626 25.1207 9.25746C25.0917 9.27197 25.0655 9.29091 25.0365 9.30399C25.0263 9.30835 25.0147 9.30692 25.006 9.31127C19.4346 11.9299 16.6954 16.4986 15.4514 21.1966C14.5446 15.3143 12.6294 11.8514 10.8202 9.72542C9.51095 8.02816 8.22341 7.12861 7.47943 6.62005C7.34136 6.52557 6.92435 6.24077 6.7514 6.06782C6.46803 5.78445 6.46803 5.32378 6.7514 5.04041C7.03477 4.75848 7.49687 4.75848 7.81218 5.07236C7.88923 5.14068 8.01272 5.22787 8.16966 5.3325L8.29902 5.41969C9.35108 6.14043 11.31 7.47879 13.0479 10.3604C13.2034 10.6176 13.5042 10.7557 13.7963 10.7005C14.0928 10.6481 14.3252 10.42 14.3834 10.125C14.7627 8.18796 14.5927 5.31356 12.8649 3.58578C10.069 0.792782 4.59789 0.46875 0.726671 0.46875C0.32553 0.468682 0 0.794212 0 1.19528C0 5.06793 0.324032 10.5391 3.11846 13.335C4.28387 14.5004 6.08147 15.0236 7.86736 15.0236C9.32486 15.0236 10.7533 14.6588 11.8476 14.0267C13.3399 17.119 14.5316 21.7386 14.5316 28.8053C14.5316 29.2064 14.8571 29.5319 15.2582 29.5319C15.6592 29.5319 15.9848 29.2064 15.9848 28.8053C15.9848 24.8629 16.6605 20.1314 19.173 16.2369C20.18 17.2207 21.9137 17.8441 23.8347 17.9022C23.9306 17.9052 24.0251 17.9066 24.1195 17.9066C26.0711 17.9066 27.796 17.2948 28.8815 16.2078C31.6773 13.412 31.9999 7.94083 31.9999 4.06811C32.0015 3.66711 31.6774 3.34308 31.2749 3.34308Z" fill="#00B307"/>
</svg>
