<svg width="31" height="19" viewBox="0 0 31 19" fill="none" xmlns="http://www.w3.org/2000/svg">
<path fill-rule="evenodd" clip-rule="evenodd" d="M15.7371 16.2751C14.17 17.5961 12.1372 18.3935 9.91585 18.3935C4.9594 18.3935 0.941406 14.4233 0.941406 9.52585C0.941406 4.62838 4.9594 0.658203 9.91585 0.658203C12.1372 0.658203 14.17 1.45565 15.7372 2.77662C17.3043 1.45566 19.3371 0.658226 21.5585 0.658226C26.5149 0.658226 30.5329 4.62841 30.5329 9.52587C30.5329 14.4233 26.5149 18.3935 21.5585 18.3935C19.3371 18.3935 17.3043 17.5961 15.7371 16.2751Z" fill="#ED0006"/>
<path fill-rule="evenodd" clip-rule="evenodd" d="M15.7373 16.2752C17.6669 14.6487 18.8905 12.2285 18.8905 9.52585C18.8905 6.82325 17.6669 4.40302 15.7373 2.77653C17.3044 1.45561 19.3372 0.658203 21.5585 0.658203C26.515 0.658203 30.533 4.62838 30.533 9.52585C30.533 14.4233 26.515 18.3935 21.5585 18.3935C19.3372 18.3935 17.3044 17.5961 15.7373 16.2752Z" fill="#F9A000"/>
<path fill-rule="evenodd" clip-rule="evenodd" d="M15.7371 16.2758C17.6667 14.6494 18.8903 12.2292 18.8903 9.52659C18.8903 6.82403 17.6667 4.40383 15.7371 2.77734C13.8075 4.40383 12.584 6.82403 12.584 9.52659C12.584 12.2292 13.8075 14.6494 15.7371 16.2758Z" fill="#FF5E00"/>
</svg>
