<svg width="14" height="14" viewBox="0 0 14 14" fill="none" xmlns="http://www.w3.org/2000/svg">
<path fill-rule="evenodd" clip-rule="evenodd" d="M0.91701 0.00350981C1.46739 -0.0423549 1.95074 0.366633 1.9966 0.91701L2.76736 10.1661C2.85374 11.2027 3.72028 12.0001 4.76045 12.0001H9.23966C10.2798 12.0001 11.1464 11.2027 11.2327 10.1661L12.0035 0.91701C12.0494 0.366633 12.5327 -0.0423549 13.0831 0.00350981C13.6335 0.0493746 14.0425 0.532724 13.9966 1.0831L13.2258 10.3322C13.0531 12.4054 11.32 14.0001 9.23966 14.0001H4.76045C2.6801 14.0001 0.947035 12.4054 0.774271 10.3322L0.00350981 1.0831C-0.0423549 0.532724 0.366633 0.0493745 0.91701 0.00350981Z" fill="#FF0000"/>
</svg>
