<svg width="32" height="12" viewBox="0 0 32 12" fill="none" xmlns="http://www.w3.org/2000/svg">
<path fill-rule="evenodd" clip-rule="evenodd" d="M8.22836 10.9889H5.50223L3.45797 2.96057C3.36094 2.59127 3.15492 2.26478 2.85187 2.1109C2.09557 1.7242 1.26218 1.41645 0.353027 1.26123V0.952143H4.74461C5.35071 0.952143 5.80528 1.41645 5.88104 1.95569L6.94172 7.74681L9.66652 0.952143H12.3169L8.22836 10.9889ZM13.8322 10.9889H11.2576L13.3776 0.952143H15.9522L13.8322 10.9889ZM19.283 3.73268C19.3588 3.1921 19.8133 2.88301 20.3437 2.88301C21.1771 2.8054 22.0849 2.96062 22.8425 3.34598L23.2971 1.18501C22.5395 0.875918 21.7061 0.720703 20.9498 0.720703C18.4509 0.720703 16.6326 2.11095 16.6326 4.04043C16.6326 5.50828 17.9206 6.27901 18.8297 6.74331C19.8133 7.20628 20.1921 7.51537 20.1164 7.97834C20.1164 8.6728 19.3588 8.98189 18.6025 8.98189C17.6933 8.98189 16.7842 8.7504 15.9521 8.3637L15.4975 10.526C16.4067 10.9114 17.3903 11.0666 18.2994 11.0666C21.1013 11.1429 22.8425 9.75395 22.8425 7.66925C22.8425 5.04398 19.283 4.8901 19.283 3.73268ZM31.853 10.9889L29.8087 0.952143H27.6129C27.1583 0.952143 26.7038 1.26123 26.5522 1.7242L22.7668 10.9889H25.4171L25.9461 9.52242H29.2026L29.5056 10.9889H31.853ZM27.9918 3.6551L28.7481 7.4378H26.6281L27.9918 3.6551Z" fill="white"/>
</svg>
