<svg width="10" height="11" viewBox="0 0 10 11" fill="none" xmlns="http://www.w3.org/2000/svg">
<path d="M8.20833 5.04102H1.79167C1.28541 5.04102 0.875 5.45142 0.875 5.95768V9.16602C0.875 9.67228 1.28541 10.0827 1.79167 10.0827H8.20833C8.71459 10.0827 9.125 9.67228 9.125 9.16602V5.95768C9.125 5.45142 8.71459 5.04102 8.20833 5.04102Z" stroke="white" stroke-width="0.916667" stroke-linecap="round" stroke-linejoin="round"/>
<path d="M2.7085 5.04102V3.20768C2.7085 2.59989 2.94994 2.017 3.37971 1.58723C3.80948 1.15746 4.39237 0.916016 5.00016 0.916016C5.60795 0.916016 6.19084 1.15746 6.62062 1.58723C7.05039 2.017 7.29183 2.59989 7.29183 3.20768V5.04102" stroke="white" stroke-width="0.916667" stroke-linecap="round" stroke-linejoin="round"/>
</svg>
