<svg width="18" height="13" viewBox="0 0 18 13" fill="none" xmlns="http://www.w3.org/2000/svg">
<path d="M0.666504 6.49935C0.666504 6.49935 3.6965 0.666016 8.99984 0.666016C14.3032 0.666016 17.3332 6.49935 17.3332 6.49935C17.3332 6.49935 14.3032 12.3327 8.99984 12.3327C3.6965 12.3327 0.666504 6.49935 0.666504 6.49935Z" stroke="#1A1A1A" stroke-width="1.5" stroke-linecap="round" stroke-linejoin="round"/>
<path d="M9 9C9.66304 9 10.2989 8.73661 10.7678 8.26777C11.2366 7.79893 11.5 7.16304 11.5 6.5C11.5 5.83696 11.2366 5.20107 10.7678 4.73223C10.2989 4.26339 9.66304 4 9 4C8.33696 4 7.70107 4.26339 7.23223 4.73223C6.76339 5.20107 6.5 5.83696 6.5 6.5C6.5 7.16304 6.76339 7.79893 7.23223 8.26777C7.70107 8.73661 8.33696 9 9 9V9Z" stroke="#1A1A1A" stroke-width="1.5" stroke-linecap="round" stroke-linejoin="round"/>
</svg>
