<svg width="28" height="26" viewBox="0 0 28 26" fill="none" xmlns="http://www.w3.org/2000/svg">
<path d="M22.5187 18V11.3333C22.5187 7.24 20.1917 3.81333 16.1338 2.90667V2C16.1338 0.893333 15.169 0 13.9914 0C12.8137 0 11.8773 0.893333 11.8773 2V2.90667C7.80519 3.81333 5.49247 7.22667 5.49247 11.3333V18L3.64796 19.72C2.75409 20.56 3.37838 22 4.64116 22H23.3274C24.5902 22 25.2287 20.56 24.3348 19.72L22.5187 18ZM13.9914 26C15.5521 26 16.8291 24.8 16.8291 23.3333H11.1537C11.1537 24.8 12.4164 26 13.9914 26ZM6.58498 2.97333C7.1809 2.46667 7.19508 1.6 6.62754 1.06667C6.08838 0.56 5.20869 0.546667 4.65534 1.04C2.22911 3.12 0.554871 5.94667 0.015708 9.12C-0.111988 9.93333 0.554871 10.6667 1.43456 10.6667C2.1156 10.6667 2.71152 10.2 2.82503 9.56C3.25068 6.97333 4.61278 4.66667 6.58498 2.97333ZM23.37 1.04C22.8024 0.546667 21.9227 0.56 21.3836 1.06667C20.816 1.6 20.8444 2.45333 21.4261 2.96C23.3841 4.65333 24.7604 6.96 25.1861 9.54667C25.2854 10.1867 25.8813 10.6533 26.5766 10.6533C27.4421 10.6533 28.1231 9.92 27.9812 9.10667C27.4421 5.94667 25.782 3.13333 23.37 1.04Z" fill="white"/>
</svg>
