<svg width="18" height="19" viewBox="0 0 18 19" fill="none" xmlns="http://www.w3.org/2000/svg">
<path d="M16 18.8535H7C6.46957 18.8535 5.96086 18.6428 5.58579 18.2677C5.21071 17.8927 5 17.3839 5 16.8535V12.8535H7V16.8535H16V2.85352H7V6.85352H5V2.85352C5 2.32308 5.21071 1.81437 5.58579 1.4393C5.96086 1.06423 6.46957 0.853516 7 0.853516H16C16.5304 0.853516 17.0391 1.06423 17.4142 1.4393C17.7893 1.81437 18 2.32308 18 2.85352V16.8535C18 17.3839 17.7893 17.8927 17.4142 18.2677C17.0391 18.6428 16.5304 18.8535 16 18.8535ZM9 13.8535V10.8535H0V8.85352H9V5.85352L14 9.85352L9 13.8535Z" fill="#CCCCCC"/>
</svg>
