<svg width="28" height="28" viewBox="0 0 28 28" fill="none" xmlns="http://www.w3.org/2000/svg">
<path d="M22.5187 18.989V12.0689C22.5187 7.81993 20.1917 4.26299 16.1338 3.32186V2.38072C16.1338 1.23198 15.169 0.304688 13.9914 0.304688C12.8137 0.304688 11.8773 1.23198 11.8773 2.38072V3.32186C7.80519 4.26299 5.49247 7.80609 5.49247 12.0689V18.989L3.64796 20.7744C2.75409 21.6463 3.37838 23.1411 4.64116 23.1411H23.3274C24.5902 23.1411 25.2287 21.6463 24.3348 20.7744L22.5187 18.989ZM13.9914 27.2931C15.5521 27.2931 16.8291 26.0475 16.8291 24.5251H11.1537C11.1537 26.0475 12.4164 27.2931 13.9914 27.2931ZM6.58498 3.39106C7.1809 2.86513 7.19508 1.96551 6.62754 1.41191C6.08838 0.885977 5.20869 0.872136 4.65534 1.38422C2.22911 3.5433 0.554871 6.47743 0.015708 9.7714C-0.111988 10.6157 0.554871 11.3769 1.43456 11.3769C2.1156 11.3769 2.71152 10.8925 2.82503 10.2281C3.25068 7.54312 4.61278 5.14876 6.58498 3.39106ZM23.37 1.38422C22.8024 0.872136 21.9227 0.885977 21.3836 1.41191C20.816 1.96551 20.8444 2.85129 21.4261 3.37722C23.3841 5.13492 24.7604 7.52928 25.1861 10.2143C25.2854 10.8786 25.8813 11.363 26.5766 11.363C27.4421 11.363 28.1231 10.6018 27.9812 9.75756C27.4421 6.47743 25.782 3.55714 23.37 1.38422Z" fill="white"/>
</svg>
