<svg width="33" height="15" viewBox="0 0 33 15" fill="none" xmlns="http://www.w3.org/2000/svg">
<path fill-rule="evenodd" clip-rule="evenodd" d="M6.00627 2.04236C5.62856 2.5081 5.02422 2.87545 4.41988 2.82298C4.34434 2.19323 4.64022 1.52413 4.98645 1.11086C5.36416 0.631998 6.02516 0.290888 6.56025 0.264648C6.6232 0.92063 6.37769 1.56349 6.00627 2.04236ZM6.55396 2.94759C6.02155 2.91566 5.53575 3.11444 5.14335 3.275C4.89084 3.37832 4.677 3.46582 4.51432 3.46582C4.33176 3.46582 4.1091 3.37364 3.8591 3.27015C3.53152 3.13454 3.157 2.97951 2.76426 2.98695C1.86405 3.00007 1.02679 3.53141 0.567237 4.37763C-0.377042 6.07006 0.321725 8.5759 1.23453 9.95346C1.68149 10.6357 2.21658 11.3835 2.92164 11.3573C3.23182 11.3451 3.45495 11.2464 3.68587 11.1443C3.95172 11.0268 4.22789 10.9046 4.65911 10.9046C5.07538 10.9046 5.33948 11.0236 5.59299 11.1377C5.83404 11.2463 6.06553 11.3505 6.40917 11.3441C7.13942 11.331 7.59897 10.6619 8.04592 9.9797C8.52827 9.2475 8.74023 8.5329 8.7724 8.42445L8.77617 8.41191C8.7754 8.41111 8.76944 8.40826 8.75892 8.40325C8.59769 8.32633 7.36527 7.73842 7.35345 6.1619C7.34159 4.83863 8.33097 4.16819 8.48671 4.06265C8.49619 4.05623 8.50258 4.0519 8.50547 4.04964C7.87595 3.07879 6.8939 2.97383 6.55396 2.94759ZM11.6091 11.272V1.04524H15.2917C17.1929 1.04524 18.5212 2.40968 18.5212 4.40386C18.5212 6.39805 17.1677 7.7756 15.2414 7.7756H13.1325V11.272H11.6091ZM13.1324 2.38347H14.8888C16.2108 2.38347 16.9662 3.11817 16.9662 4.41045C16.9662 5.70274 16.2108 6.44399 14.8825 6.44399H13.1324V2.38347ZM23.5511 10.0454C23.1482 10.8457 22.2606 11.3508 21.3037 11.3508C19.8873 11.3508 18.899 10.4717 18.899 9.14666C18.899 7.8347 19.8558 7.08032 21.6248 6.96881L23.5259 6.85073V6.28659C23.5259 5.45349 23.0034 5.00087 22.0717 5.00087C21.3037 5.00087 20.7435 5.41413 20.6301 6.04388H19.2578C19.3019 4.71879 20.4979 3.7545 22.1158 3.7545C23.8596 3.7545 24.9927 4.70568 24.9927 6.18163V11.272H23.5826V10.0454H23.5511ZM21.7128 10.1372C20.9007 10.1372 20.3845 9.73044 20.3845 9.10726C20.3845 8.4644 20.8819 8.09049 21.8324 8.03145L23.5258 7.91994V8.4972C23.5258 9.45493 22.7452 10.1372 21.7128 10.1372ZM29.67 11.6722C29.0594 13.463 28.3606 14.0534 26.875 14.0534C26.7617 14.0534 26.384 14.0403 26.2958 14.014V12.7874C26.3903 12.8005 26.6232 12.8136 26.7428 12.8136C27.4164 12.8136 27.7941 12.5184 28.027 11.7509L28.1655 11.2983L25.5845 3.8529H27.1772L28.9713 9.89448H29.0028L30.7969 3.8529H32.3455L29.67 11.6722Z" fill="white"/>
</svg>
