<svg width="14" height="16" viewBox="0 0 14 16" fill="none" xmlns="http://www.w3.org/2000/svg">
<g filter="url(#filter0_d_45_6426)">
<path fill-rule="evenodd" clip-rule="evenodd" d="M2.83 12.4727C2.553 12.0967 2.215 11.3277 1.614 10.3937C1.274 9.86573 0.428996 8.87073 0.177996 8.36573C-0.0400042 7.91973 -0.0170043 7.71973 0.0349957 7.34973C0.126996 6.69173 0.756996 6.17973 1.429 6.24773C1.937 6.29973 2.368 6.65873 2.755 6.99773C2.989 7.20273 3.277 7.59973 3.45 7.82373C3.61 8.02973 3.649 8.11373 3.819 8.35773C4.044 8.67973 4.114 8.83773 4.029 8.48473C3.959 7.96473 3.845 7.07673 3.681 6.29173C3.556 5.69673 3.525 5.60373 3.406 5.14673C3.28 4.66073 3.216 4.31973 3.096 3.80473C3.015 3.43973 2.866 2.69473 2.826 2.27473C2.771 1.70173 2.742 0.767734 3.085 0.337734C3.354 0.00173378 3.971 -0.100266 4.354 0.107734C4.855 0.377734 5.14 1.15773 5.27 1.46973C5.504 2.02973 5.649 2.67573 5.775 3.52473C5.935 4.60473 6.231 6.10473 6.241 6.41973C6.264 6.03373 6.174 5.21973 6.237 4.84773C6.293 4.51173 6.557 4.12073 6.888 4.01473C7.168 3.92573 7.496 3.89373 7.784 3.95773C8.091 4.02473 8.414 4.25873 8.534 4.47973C8.888 5.13373 8.895 6.46973 8.91 6.39973C8.994 6.00473 8.98 5.11073 9.188 4.73973C9.325 4.49373 9.674 4.27273 9.86 4.23673C10.147 4.18273 10.5 4.16673 10.803 4.22873C11.047 4.27973 11.376 4.59073 11.465 4.73873C11.679 5.09873 11.8 6.11873 11.836 6.47673C11.851 6.62373 11.909 6.06573 12.123 5.70573C12.52 5.03573 13.926 4.90573 13.98 6.37573C14.004 7.05973 14 7.02873 14 7.48973C14 8.03173 13.988 8.35773 13.96 8.74973C13.93 9.16873 13.846 10.1157 13.724 10.5747C13.64 10.8907 13.361 11.5997 13.086 12.0247C13.086 12.0247 12.035 13.3347 11.92 13.9247C11.805 14.5147 11.843 14.5187 11.82 14.9367C11.798 15.3537 11.939 15.9027 11.939 15.9027C11.939 15.9027 11.154 16.0117 10.732 15.9397C10.349 15.8737 9.875 15.0577 9.753 14.8087C9.585 14.4647 9.226 14.5307 9.086 14.7847C8.866 15.1857 8.392 15.9057 8.057 15.9507C7.404 16.0387 6.047 15.9837 4.987 15.9717C4.987 15.9717 5.167 14.9117 4.764 14.5487C4.466 14.2777 3.952 13.7267 3.644 13.4387L2.831 12.4727H2.83Z" fill="white"/>
<path fill-rule="evenodd" clip-rule="evenodd" d="M2.83 12.4727C2.553 12.0967 2.215 11.3277 1.614 10.3937C1.274 9.86573 0.428996 8.87073 0.177996 8.36573C-0.0400042 7.91973 -0.0170043 7.71973 0.0349957 7.34973C0.126996 6.69173 0.756996 6.17973 1.429 6.24773C1.937 6.29973 2.368 6.65873 2.755 6.99773C2.989 7.20273 3.277 7.59973 3.45 7.82373C3.61 8.02973 3.649 8.11373 3.819 8.35773C4.044 8.67973 4.114 8.83773 4.029 8.48473C3.959 7.96473 3.845 7.07673 3.681 6.29173C3.556 5.69673 3.525 5.60373 3.406 5.14673C3.28 4.66073 3.216 4.31973 3.096 3.80473C3.015 3.43973 2.866 2.69473 2.826 2.27473C2.771 1.70173 2.742 0.767734 3.085 0.337734C3.354 0.00173378 3.971 -0.100266 4.354 0.107734C4.855 0.377734 5.14 1.15773 5.27 1.46973C5.504 2.02973 5.649 2.67573 5.775 3.52473C5.935 4.60473 6.231 6.10473 6.241 6.41973C6.264 6.03373 6.174 5.21973 6.237 4.84773C6.293 4.51173 6.557 4.12073 6.888 4.01473C7.168 3.92573 7.496 3.89373 7.784 3.95773C8.091 4.02473 8.414 4.25873 8.534 4.47973C8.888 5.13373 8.895 6.46973 8.91 6.39973C8.994 6.00473 8.98 5.11073 9.188 4.73973C9.325 4.49373 9.674 4.27273 9.86 4.23673C10.147 4.18273 10.5 4.16673 10.803 4.22873C11.047 4.27973 11.376 4.59073 11.465 4.73873C11.679 5.09873 11.8 6.11873 11.836 6.47673C11.851 6.62373 11.909 6.06573 12.123 5.70573C12.52 5.03573 13.926 4.90573 13.98 6.37573C14.004 7.05973 14 7.02873 14 7.48973C14 8.03173 13.988 8.35773 13.96 8.74973C13.93 9.16873 13.846 10.1157 13.724 10.5747C13.64 10.8907 13.361 11.5997 13.086 12.0247C13.086 12.0247 12.035 13.3347 11.92 13.9247C11.805 14.5147 11.843 14.5187 11.82 14.9367C11.798 15.3537 11.939 15.9027 11.939 15.9027C11.939 15.9027 11.154 16.0117 10.732 15.9397C10.349 15.8737 9.875 15.0577 9.753 14.8087C9.585 14.4647 9.226 14.5307 9.086 14.7847C8.866 15.1857 8.392 15.9057 8.057 15.9507C7.404 16.0387 6.047 15.9837 4.987 15.9717C4.987 15.9717 5.167 14.9117 4.764 14.5487C4.466 14.2777 3.952 13.7267 3.644 13.4387L2.831 12.4727H2.83Z" stroke="black" stroke-width="0.75" stroke-linecap="round" stroke-linejoin="round"/>
</g>
<path fill-rule="evenodd" clip-rule="evenodd" d="M6.875 9.5C6.875 9.40054 6.83549 9.30516 6.76517 9.23483C6.69484 9.16451 6.59946 9.125 6.5 9.125C6.40054 9.125 6.30516 9.16451 6.23483 9.23483C6.16451 9.30516 6.125 9.40054 6.125 9.5V12.5C6.125 12.5995 6.16451 12.6948 6.23483 12.7652C6.30516 12.8355 6.40054 12.875 6.5 12.875C6.59946 12.875 6.69484 12.8355 6.76517 12.7652C6.83549 12.6948 6.875 12.5995 6.875 12.5V9.5ZM8.5 9.125C8.707 9.125 8.875 9.293 8.875 9.5V12.5C8.875 12.5995 8.83549 12.6948 8.76517 12.7652C8.69484 12.8355 8.59946 12.875 8.5 12.875C8.40054 12.875 8.30516 12.8355 8.23483 12.7652C8.16451 12.6948 8.125 12.5995 8.125 12.5V9.5C8.125 9.293 8.293 9.125 8.5 9.125ZM10.5 9.125C10.707 9.125 10.875 9.293 10.875 9.5V12.5C10.875 12.5995 10.8355 12.6948 10.7652 12.7652C10.6948 12.8355 10.5995 12.875 10.5 12.875C10.4005 12.875 10.3052 12.8355 10.2348 12.7652C10.1645 12.6948 10.125 12.5995 10.125 12.5V9.5C10.125 9.293 10.293 9.125 10.5 9.125Z" fill="black"/>
<defs>
<filter id="filter0_d_45_6426" x="-2.37509" y="-1.375" width="18.7503" height="20.75" filterUnits="userSpaceOnUse" color-interpolation-filters="sRGB">
<feFlood flood-opacity="0" result="BackgroundImageFix"/>
<feColorMatrix in="SourceAlpha" type="matrix" values="0 0 0 0 0 0 0 0 0 0 0 0 0 0 0 0 0 0 127 0" result="hardAlpha"/>
<feOffset dy="1"/>
<feGaussianBlur stdDeviation="1"/>
<feColorMatrix type="matrix" values="0 0 0 0 0 0 0 0 0 0 0 0 0 0 0 0 0 0 0.24 0"/>
<feBlend mode="normal" in2="BackgroundImageFix" result="effect1_dropShadow_45_6426"/>
<feBlend mode="normal" in="SourceGraphic" in2="effect1_dropShadow_45_6426" result="shape"/>
</filter>
</defs>
</svg>
