<svg width="10" height="10" viewBox="0 0 10 10" fill="none" xmlns="http://www.w3.org/2000/svg">
<path d="M5.20663 8.44042L7.57101 9.93817C7.87326 10.1294 8.24826 9.84479 8.15863 9.49192L7.47576 6.80504C7.45647 6.7302 7.45869 6.65143 7.48217 6.5778C7.50566 6.50416 7.54945 6.43865 7.60851 6.38879L9.72875 4.62442C10.007 4.39267 9.86375 3.93029 9.50563 3.90704L6.73701 3.72704C6.66246 3.72175 6.59096 3.6954 6.53081 3.65106C6.47066 3.60671 6.42435 3.54619 6.39726 3.47654L5.36451 0.876293C5.33638 0.802395 5.28647 0.73879 5.22137 0.693911C5.15627 0.649033 5.07907 0.625 5.00001 0.625C4.92094 0.625 4.84374 0.649033 4.77864 0.693911C4.71354 0.73879 4.66363 0.802395 4.63551 0.876293L3.60276 3.47654C3.57572 3.54626 3.52943 3.60686 3.46928 3.65127C3.40913 3.69569 3.33759 3.7221 3.26301 3.72742L0.494381 3.90742C0.136631 3.93029 -0.00736856 4.39267 0.271256 4.62442L2.39151 6.38917C2.4505 6.43899 2.49424 6.50444 2.51772 6.578C2.54121 6.65156 2.54347 6.73025 2.52426 6.80504L1.89126 9.29692C1.78363 9.72029 2.23401 10.0619 2.59626 9.83204L4.79376 8.44042C4.85552 8.40115 4.92719 8.3803 5.00038 8.3803C5.07357 8.3803 5.14524 8.40115 5.20701 8.44042H5.20663Z" fill="#FF8A00"/>
</svg>
