<svg width="10" height="10" viewBox="0 0 10 10" fill="none" xmlns="http://www.w3.org/2000/svg">
<path d="M5.2066 8.44042L7.57098 9.93817C7.87323 10.1294 8.24823 9.84479 8.1586 9.49192L7.47572 6.80504C7.45644 6.7302 7.45866 6.65143 7.48214 6.5778C7.50563 6.50416 7.54942 6.43865 7.60847 6.38879L9.72872 4.62442C10.007 4.39267 9.86372 3.93029 9.5056 3.90704L6.73697 3.72704C6.66243 3.72175 6.59093 3.6954 6.53078 3.65106C6.47063 3.60671 6.42431 3.54619 6.39722 3.47654L5.36448 0.876293C5.33635 0.802395 5.28644 0.73879 5.22134 0.693911C5.15624 0.649033 5.07904 0.625 4.99998 0.625C4.92091 0.625 4.84371 0.649033 4.77861 0.693911C4.71351 0.73879 4.6636 0.802395 4.63548 0.876293L3.60273 3.47654C3.57569 3.54626 3.5294 3.60686 3.46925 3.65127C3.4091 3.69569 3.33756 3.7221 3.26298 3.72742L0.494351 3.90742C0.136601 3.93029 -0.00739908 4.39267 0.271226 4.62442L2.39148 6.38917C2.45047 6.43899 2.49421 6.50444 2.51769 6.578C2.54118 6.65156 2.54344 6.73025 2.52423 6.80504L1.89123 9.29692C1.7836 9.72029 2.23398 10.0619 2.59623 9.83204L4.79373 8.44042C4.85549 8.40115 4.92716 8.3803 5.00035 8.3803C5.07354 8.3803 5.14521 8.40115 5.20697 8.44042H5.2066Z" fill="#FF8A00"/>
</svg>
