<svg width="31" height="19" viewBox="0 0 31 19" fill="none" xmlns="http://www.w3.org/2000/svg">
<path fill-rule="evenodd" clip-rule="evenodd" d="M15.2369 16.2741C13.6698 17.5951 11.6369 18.3925 9.4156 18.3925C4.45916 18.3925 0.441162 14.4223 0.441162 9.52487C0.441162 4.62741 4.45916 0.657227 9.4156 0.657227C11.6369 0.657227 13.6698 1.45467 15.2369 2.77564C16.8041 1.45468 18.8369 0.65725 21.0582 0.65725C26.0147 0.65725 30.0327 4.62743 30.0327 9.5249C30.0327 14.4224 26.0147 18.3925 21.0582 18.3925C18.8369 18.3925 16.804 17.5951 15.2369 16.2741Z" fill="#ED0006"/>
<path fill-rule="evenodd" clip-rule="evenodd" d="M15.2369 16.2742C17.1665 14.6477 18.3901 12.2275 18.3901 9.52487C18.3901 6.82227 17.1665 4.40205 15.2369 2.77555C16.804 1.45464 18.8368 0.657227 21.0581 0.657227C26.0145 0.657227 30.0325 4.62741 30.0325 9.52487C30.0325 14.4223 26.0145 18.3925 21.0581 18.3925C18.8368 18.3925 16.804 17.5951 15.2369 16.2742Z" fill="#F9A000"/>
<path fill-rule="evenodd" clip-rule="evenodd" d="M15.2369 16.2739C17.1665 14.6474 18.3901 12.2272 18.3901 9.52464C18.3901 6.82207 17.1665 4.40188 15.2369 2.77539C13.3073 4.40188 12.0838 6.82207 12.0838 9.52464C12.0838 12.2272 13.3073 14.6474 15.2369 16.2739Z" fill="#FF5E00"/>
</svg>
