<svg width="1031" height="1316" viewBox="0 0 1031 1316" fill="none" xmlns="http://www.w3.org/2000/svg">
<path d="M13.0607 4.05711L18.8115 9.62805L6.32398 21.7251L1.19673 22.2734C0.510338 22.3469 -0.0695884 21.7847 0.00677675 21.1198L0.57727 16.1494L13.0607 4.05711ZM22.3683 3.2277L19.6681 0.611945C18.8259 -0.203982 17.4598 -0.203982 16.6176 0.611945L14.0773 3.07278L19.828 8.64371L22.3683 6.18288C23.2106 5.36651 23.2106 4.04362 22.3683 3.2277Z" fill="black"/>
<path d="M349.061 4.05711L354.811 9.62805L342.324 21.7251L337.197 22.2734C336.51 22.3469 335.93 21.7847 336.007 21.1198L336.577 16.1494L349.061 4.05711ZM358.368 3.2277L355.668 0.611945C354.826 -0.203982 353.46 -0.203982 352.618 0.611945L350.077 3.07278L355.828 8.64371L358.368 6.18288C359.211 5.36651 359.211 4.04362 358.368 3.2277Z" fill="black"/>
<path d="M685.061 4.05711L690.811 9.62805L678.324 21.7251L673.197 22.2734C672.51 22.3469 671.93 21.7847 672.007 21.1198L672.577 16.1494L685.061 4.05711ZM694.368 3.2277L691.668 0.611945C690.826 -0.203982 689.46 -0.203982 688.618 0.611945L686.077 3.07278L691.828 8.64371L694.368 6.18288C695.211 5.36651 695.211 4.04362 694.368 3.2277Z" fill="black"/>
<path d="M1021.06 4.05711L1026.81 9.62805L1014.32 21.7251L1009.2 22.2734C1008.51 22.3469 1007.93 21.7847 1008.01 21.1198L1008.58 16.1494L1021.06 4.05711ZM1030.37 3.2277L1027.67 0.611945C1026.83 -0.203982 1025.46 -0.203982 1024.62 0.611945L1022.08 3.07278L1027.83 8.64371L1030.37 6.18288C1031.21 5.36651 1031.21 4.04362 1030.37 3.2277Z" fill="black"/>
<path d="M1021.06 435.057L1026.81 440.628L1014.32 452.725L1009.2 453.273C1008.51 453.347 1007.93 452.785 1008.01 452.12L1008.58 447.149L1021.06 435.057ZM1030.37 434.228L1027.67 431.612C1026.83 430.796 1025.46 430.796 1024.62 431.612L1022.08 434.073L1027.83 439.644L1030.37 437.183C1031.21 436.367 1031.21 435.044 1030.37 434.228Z" fill="black"/>
<path d="M685.061 435.057L690.811 440.628L678.324 452.725L673.197 453.273C672.51 453.347 671.93 452.785 672.007 452.12L672.577 447.149L685.061 435.057ZM694.368 434.228L691.668 431.612C690.826 430.796 689.46 430.796 688.618 431.612L686.077 434.073L691.828 439.644L694.368 437.183C695.211 436.367 695.211 435.044 694.368 434.228Z" fill="black"/>
<path d="M349.061 435.057L354.811 440.628L342.324 452.725L337.197 453.273C336.51 453.347 335.93 452.785 336.007 452.12L336.577 447.149L349.061 435.057ZM358.368 434.228L355.668 431.612C354.826 430.796 353.46 430.796 352.618 431.612L350.077 434.073L355.828 439.644L358.368 437.183C359.211 436.367 359.211 435.044 358.368 434.228Z" fill="black"/>
<path d="M13.0607 435.057L18.8115 440.628L6.32398 452.725L1.19673 453.273C0.510338 453.347 -0.0695884 452.785 0.00677675 452.12L0.57727 447.149L13.0607 435.057ZM22.3683 434.228L19.6681 431.612C18.8259 430.796 17.4598 430.796 16.6176 431.612L14.0773 434.073L19.828 439.644L22.3683 437.183C23.2106 436.367 23.2106 435.044 22.3683 434.228Z" fill="black"/>
<path d="M13.0607 866.057L18.8115 871.628L6.32398 883.725L1.19673 884.273C0.510338 884.347 -0.0695884 883.785 0.00677675 883.12L0.57727 878.149L13.0607 866.057ZM22.3683 865.228L19.6681 862.612C18.8259 861.796 17.4598 861.796 16.6176 862.612L14.0773 865.073L19.828 870.644L22.3683 868.183C23.2106 867.367 23.2106 866.044 22.3683 865.228Z" fill="black"/>
<path d="M349.061 866.057L354.811 871.628L342.324 883.725L337.197 884.273C336.51 884.347 335.93 883.785 336.007 883.12L336.577 878.149L349.061 866.057ZM358.368 865.228L355.668 862.612C354.826 861.796 353.46 861.796 352.618 862.612L350.077 865.073L355.828 870.644L358.368 868.183C359.211 867.367 359.211 866.044 358.368 865.228Z" fill="black"/>
<path d="M685.061 866.057L690.811 871.628L678.324 883.725L673.197 884.273C672.51 884.347 671.93 883.785 672.007 883.12L672.577 878.149L685.061 866.057ZM694.368 865.228L691.668 862.612C690.826 861.796 689.46 861.796 688.618 862.612L686.077 865.073L691.828 870.644L694.368 868.183C695.211 867.367 695.211 866.044 694.368 865.228Z" fill="black"/>
<path d="M1021.06 866.057L1026.81 871.628L1014.32 883.725L1009.2 884.273C1008.51 884.347 1007.93 883.785 1008.01 883.12L1008.58 878.149L1021.06 866.057ZM1030.37 865.228L1027.67 862.612C1026.83 861.796 1025.46 861.796 1024.62 862.612L1022.08 865.073L1027.83 870.644L1030.37 868.183C1031.21 867.367 1031.21 866.044 1030.37 865.228Z" fill="black"/>
<path d="M1021.06 1297.06L1026.81 1302.63L1014.32 1314.73L1009.2 1315.27C1008.51 1315.35 1007.93 1314.78 1008.01 1314.12L1008.58 1309.15L1021.06 1297.06ZM1030.37 1296.23L1027.67 1293.61C1026.83 1292.8 1025.46 1292.8 1024.62 1293.61L1022.08 1296.07L1027.83 1301.64L1030.37 1299.18C1031.21 1298.37 1031.21 1297.04 1030.37 1296.23Z" fill="black"/>
<path d="M685.061 1297.06L690.811 1302.63L678.324 1314.73L673.197 1315.27C672.51 1315.35 671.93 1314.78 672.007 1314.12L672.577 1309.15L685.061 1297.06ZM694.368 1296.23L691.668 1293.61C690.826 1292.8 689.46 1292.8 688.618 1293.61L686.077 1296.07L691.828 1301.64L694.368 1299.18C695.211 1298.37 695.211 1297.04 694.368 1296.23Z" fill="black"/>
<path d="M349.061 1297.06L354.811 1302.63L342.324 1314.73L337.197 1315.27C336.51 1315.35 335.93 1314.78 336.007 1314.12L336.577 1309.15L349.061 1297.06ZM358.368 1296.23L355.668 1293.61C354.826 1292.8 353.46 1292.8 352.618 1293.61L350.077 1296.07L355.828 1301.64L358.368 1299.18C359.211 1298.37 359.211 1297.04 358.368 1296.23Z" fill="black"/>
<path d="M13.0607 1297.06L18.8115 1302.63L6.32398 1314.73L1.19673 1315.27C0.510338 1315.35 -0.0695884 1314.78 0.00677675 1314.12L0.57727 1309.15L13.0607 1297.06ZM22.3683 1296.23L19.6681 1293.61C18.8259 1292.8 17.4598 1292.8 16.6176 1293.61L14.0773 1296.07L19.828 1301.64L22.3683 1299.18C23.2106 1298.37 23.2106 1297.04 22.3683 1296.23Z" fill="black"/>
</svg>
