<svg width="33" height="28" viewBox="0 0 33 28" fill="none" xmlns="http://www.w3.org/2000/svg">
<path d="M26.5398 19.3846V12.2051C26.5398 7.79692 23.7974 4.10667 19.0149 3.13026V2.15385C19.0149 0.962051 17.8778 0 16.4898 0C15.1019 0 13.9982 0.962051 13.9982 2.15385V3.13026C9.19897 4.10667 6.47326 7.78256 6.47326 12.2051V19.3846L4.29938 21.2369C3.24589 22.1415 3.98166 23.6923 5.46993 23.6923H27.493C28.9813 23.6923 29.7338 22.1415 28.6803 21.2369L26.5398 19.3846ZM16.4898 28C18.3293 28 19.8343 26.7077 19.8343 25.1282H13.1454C13.1454 26.7077 14.6337 28 16.4898 28ZM7.76087 3.20205C8.4632 2.65641 8.47992 1.72308 7.81103 1.14872C7.17559 0.603077 6.13882 0.588718 5.48666 1.12C2.62717 3.36 0.653955 6.4041 0.018513 9.82154C-0.131986 10.6974 0.653955 11.4872 1.69073 11.4872C2.49339 11.4872 3.19572 10.9846 3.3295 10.2954C3.83116 7.50974 5.43649 5.02564 7.76087 3.20205ZM27.5432 1.12C26.8743 0.588718 25.8375 0.603077 25.2021 1.14872C24.5332 1.72308 24.5666 2.64205 25.2522 3.18769C27.5599 5.01128 29.1819 7.49538 29.6836 10.281C29.8007 10.9703 30.503 11.4728 31.3224 11.4728C32.3424 11.4728 33.1451 10.6831 32.9779 9.80718C32.3424 6.4041 30.3859 3.37436 27.5432 1.12Z" fill="white"/>
</svg>
