<svg width="33" height="12" viewBox="0 0 33 12" fill="none" xmlns="http://www.w3.org/2000/svg">
<path fill-rule="evenodd" clip-rule="evenodd" d="M8.72836 10.9889H6.00223L3.95797 2.96057C3.86094 2.59127 3.65492 2.26478 3.35187 2.1109C2.59557 1.7242 1.76218 1.41645 0.853027 1.26123V0.952143H5.24461C5.85071 0.952143 6.30528 1.41645 6.38104 1.95569L7.44172 7.74681L10.1665 0.952143H12.8169L8.72836 10.9889ZM14.3322 10.9889H11.7576L13.8776 0.952143H16.4522L14.3322 10.9889ZM19.783 3.73268C19.8588 3.1921 20.3133 2.88301 20.8437 2.88301C21.6771 2.8054 22.5849 2.96062 23.3425 3.34598L23.7971 1.18501C23.0395 0.875918 22.2061 0.720703 21.4498 0.720703C18.9509 0.720703 17.1326 2.11095 17.1326 4.04043C17.1326 5.50828 18.4206 6.27901 19.3297 6.74331C20.3133 7.20628 20.6921 7.51537 20.6164 7.97834C20.6164 8.6728 19.8588 8.98189 19.1025 8.98189C18.1933 8.98189 17.2842 8.7504 16.4521 8.3637L15.9975 10.526C16.9067 10.9114 17.8903 11.0666 18.7994 11.0666C21.6013 11.1429 23.3425 9.75395 23.3425 7.66925C23.3425 5.04398 19.783 4.8901 19.783 3.73268ZM32.353 10.9889L30.3087 0.952143H28.1129C27.6583 0.952143 27.2038 1.26123 27.0522 1.7242L23.2668 10.9889H25.9171L26.4461 9.52242H29.7026L30.0056 10.9889H32.353ZM28.4918 3.6551L29.2481 7.4378H27.1281L28.4918 3.6551Z" fill="white"/>
</svg>
