<svg width="559" height="341" viewBox="0 0 559 341" fill="none" xmlns="http://www.w3.org/2000/svg">
<path d="M360.713 329.243C364.743 326.979 369.917 326.895 374.023 329.024C378.128 331.152 381.039 335.426 381.51 340.028C373.013 340.037 364.642 338.051 360.713 329.243Z" fill="#F2F2F2"/>
<path d="M370.615 320.535C376.302 322.394 382.89 321.216 387.568 317.481C392.245 313.754 394.87 307.595 394.323 301.639C383.529 303.759 373.4 308.369 370.615 320.535Z" fill="#F2F2F2"/>
<path d="M333.622 334.913C333.614 334.896 333.799 334.829 334.152 334.703C334.548 334.568 335.061 334.391 335.7 334.181C337.055 333.744 339.007 333.104 341.405 332.271C346.2 330.614 352.788 328.208 359.888 325.112C363.43 323.555 366.77 321.974 369.757 320.459C372.735 318.92 375.377 317.447 377.539 316.126C379.684 314.772 381.392 313.636 382.478 312.728C383.588 311.853 384.135 311.28 384.169 311.322C384.177 311.331 384.051 311.474 383.782 311.743C383.513 312.004 383.142 312.416 382.579 312.862C381.51 313.813 379.819 314.999 377.691 316.387C375.537 317.75 372.912 319.256 369.934 320.813C366.947 322.352 363.607 323.951 360.057 325.507C352.939 328.603 346.326 330.976 341.497 332.557C339.082 333.357 337.114 333.946 335.751 334.333C335.103 334.518 334.581 334.661 334.178 334.778C333.824 334.888 333.631 334.93 333.622 334.913Z" fill="#F2F2F2"/>
<path d="M371.625 334.188C371.583 334.247 370.598 333.566 368.899 332.649C367.208 331.732 364.768 330.63 361.941 329.855C359.106 329.081 356.447 328.787 354.529 328.72C352.602 328.644 351.408 328.737 351.399 328.652C351.399 328.619 351.694 328.577 352.232 328.518C352.771 328.45 353.562 328.408 354.529 328.408C356.473 328.4 359.173 328.652 362.05 329.435C364.919 330.226 367.376 331.387 369.042 332.379C369.875 332.876 370.531 333.313 370.968 333.641C371.414 333.97 371.641 334.163 371.625 334.188Z" fill="#F2F2F2"/>
<path d="M171.197 296.363C169.153 301.823 170.028 308.285 173.469 312.996C176.91 317.707 182.791 320.517 188.613 320.223C187.006 309.631 182.925 299.569 171.197 296.363Z" fill="#F2F2F2"/>
<path d="M169.54 291.164C169.607 291.147 169.902 292.325 170.508 294.168C171.113 296.01 172.098 298.517 173.494 301.134C174.899 303.742 176.439 305.946 177.642 307.477C178.845 309.009 179.661 309.9 179.602 309.951C179.577 309.968 179.358 309.766 178.963 309.387C178.567 309.009 178.029 308.42 177.398 307.679C176.128 306.19 174.521 303.986 173.107 301.344C171.694 298.702 170.752 296.145 170.213 294.26C169.944 293.318 169.759 292.544 169.658 292.006C169.549 291.467 169.506 291.173 169.54 291.164Z" fill="#F2F2F2"/>
<path d="M3.06857 84.0664C-0.103202 92.5217 1.25973 102.533 6.58528 109.828C11.9108 117.122 21.0307 121.471 30.0496 121.025C27.5509 104.62 21.241 89.047 3.06857 84.0664Z" fill="#F2F2F2"/>
<path d="M0.494154 76.0236C0.519394 76.0151 0.662416 76.461 0.889572 77.2771C1.10831 78.0932 1.45326 79.2626 1.91598 80.7013C2.84143 83.5702 4.34739 87.4655 6.51799 91.5206C8.69701 95.5758 11.1032 98.9915 12.9877 101.347C13.9216 102.525 14.7124 103.467 15.2677 104.098C15.823 104.738 16.1174 105.099 16.0922 105.125C16.067 105.142 15.7304 104.822 15.1415 104.216C14.5442 103.619 13.7197 102.71 12.7437 101.549C10.7919 99.2271 8.32683 95.8198 6.13098 91.7394C3.94356 87.6506 2.47125 83.7048 1.62152 80.8022C1.19245 79.3468 0.889571 78.1605 0.721307 77.3276C0.553044 76.4863 0.468915 76.0236 0.494154 76.0236Z" fill="#F2F2F2"/>
<path d="M31.4969 251.52C26.9538 255.179 24.4299 261.186 24.9935 266.991C25.5572 272.796 29.1917 278.206 34.3574 280.924C38.3453 270.988 39.9606 260.261 31.4969 251.52Z" fill="#F2F2F2"/>
<path d="M32.7084 246.203C32.7757 246.229 32.4308 247.381 32.0185 249.283C31.6063 251.184 31.1688 253.834 31.0426 256.795C30.9248 259.757 31.1267 262.441 31.3875 264.367C31.6399 266.294 31.8923 267.48 31.8166 267.497C31.7914 267.505 31.6988 267.219 31.5558 266.689C31.4128 266.159 31.2445 265.385 31.0763 264.418C30.7397 262.491 30.4789 259.774 30.6051 256.779C30.7313 253.784 31.2193 251.1 31.7157 249.207C31.9596 248.256 32.1952 247.499 32.3803 246.986C32.5654 246.481 32.6832 246.195 32.7084 246.203Z" fill="#F2F2F2"/>
<path d="M187.628 38.7872C192.845 41.3869 199.365 41.1681 204.404 38.2319C209.444 35.2957 212.843 29.7262 213.146 23.9043C202.444 24.4259 192.029 27.4462 187.628 38.7872Z" fill="#F2F2F2"/>
<path d="M182.286 39.9068C182.278 39.8311 183.472 39.6712 185.374 39.2506C187.275 38.8383 189.866 38.1148 192.609 36.9958C195.352 35.8685 197.699 34.556 199.348 33.5212C200.997 32.4864 201.965 31.7628 202.007 31.8217C202.023 31.8469 201.805 32.0489 201.376 32.4022C200.955 32.7556 200.324 33.2267 199.516 33.782C197.901 34.8925 195.545 36.2639 192.777 37.4081C190.001 38.5439 187.368 39.2253 185.433 39.5618C184.465 39.7301 183.683 39.8395 183.136 39.8815C182.597 39.9236 182.295 39.9404 182.286 39.9068Z" fill="#F2F2F2"/>
<path d="M165.822 37.2631C173.335 35.6477 179.88 30.0698 182.657 22.9018C185.433 15.7337 184.356 7.20277 179.889 0.943359C169.288 10.2736 161.026 21.9511 165.822 37.2631Z" fill="#F2F2F2"/>
<path d="M161.237 42.7978C161.211 42.7726 161.472 42.4697 161.943 41.9313C162.423 41.4013 163.104 40.6104 163.912 39.6177C165.536 37.6322 167.631 34.7633 169.54 31.3475C171.442 27.9233 172.779 24.6338 173.612 22.2024C174.033 20.9909 174.344 19.9981 174.546 19.3082C174.757 18.6184 174.883 18.2398 174.908 18.2482C174.933 18.2566 174.866 18.6436 174.706 19.3503C174.555 20.057 174.285 21.0666 173.907 22.2949C173.15 24.76 171.837 28.1 169.927 31.5494C168.001 34.9988 165.855 37.8677 164.156 39.8112C163.306 40.7871 162.591 41.5443 162.069 42.0491C161.556 42.5539 161.253 42.8231 161.237 42.7978Z" fill="#F2F2F2"/>
<path d="M234.835 325.465C236.425 328.595 239.647 330.833 243.139 331.228C246.63 331.623 250.273 330.151 252.511 327.45C247.16 323.858 241.035 321.57 234.835 325.465Z" fill="#F2F2F2"/>
<path d="M231.857 324.084C231.924 323.958 234.456 325.43 237.914 326.305C241.364 327.205 244.291 327.129 244.291 327.264C244.291 327.314 243.568 327.407 242.382 327.373C241.195 327.348 239.563 327.171 237.805 326.725C236.055 326.271 234.532 325.64 233.48 325.102C232.429 324.555 231.831 324.134 231.857 324.084Z" fill="#F2F2F2"/>
<path d="M312.825 23.3981C314.987 26.166 318.588 27.7393 322.088 27.4449C325.588 27.1588 328.878 25.0134 330.552 21.9258C324.604 19.4439 318.159 18.3754 312.825 23.3981Z" fill="#F2F2F2"/>
<path d="M309.637 22.6242C309.679 22.4896 312.447 23.4487 316.005 23.6338C319.564 23.8525 322.425 23.2047 322.45 23.3478C322.458 23.3982 321.768 23.6254 320.599 23.8273C319.43 24.0292 317.789 24.1722 315.98 24.0713C314.171 23.9703 312.556 23.6422 311.42 23.3141C310.284 22.9776 309.62 22.6747 309.637 22.6242Z" fill="#F2F2F2"/>
<path d="M514.943 49.2773C520.563 50.8253 526.915 49.3698 531.299 45.525C535.673 41.6802 537.945 35.5638 537.137 29.8008C526.73 32.35 517.089 37.3137 514.943 49.2773Z" fill="#F2F2F2"/>
<path d="M509.912 51.3968C509.887 51.3295 511.031 50.934 512.815 50.16C514.598 49.386 517.005 48.1829 519.478 46.5592C521.952 44.927 524.004 43.1939 525.426 41.8562C526.84 40.5269 527.656 39.6351 527.706 39.6772C527.731 39.694 527.546 39.938 527.201 40.3671C526.856 40.7962 526.326 41.3851 525.637 42.0834C524.265 43.48 522.221 45.2804 519.714 46.9294C517.206 48.5699 514.75 49.7478 512.924 50.4461C512.007 50.7994 511.258 51.0518 510.737 51.2033C510.215 51.3547 509.921 51.422 509.912 51.3968Z" fill="#F2F2F2"/>
<path d="M534.849 305.703C544.726 303.423 553.249 295.927 556.765 286.412C560.282 276.905 558.692 265.665 552.668 257.504C538.87 270.031 528.219 285.612 534.849 305.703Z" fill="#F2F2F2"/>
<path d="M528.909 313.106C528.884 313.089 529.221 312.677 529.843 311.962C530.474 311.255 531.358 310.203 532.409 308.883C533.469 307.562 534.664 305.938 535.926 304.087C537.163 302.228 538.458 300.124 539.687 297.853C540.898 295.573 541.933 293.335 542.799 291.274C543.649 289.204 544.339 287.311 544.852 285.696C545.374 284.081 545.761 282.768 546.005 281.851C546.257 280.934 546.409 280.429 546.434 280.438C546.459 280.446 546.367 280.959 546.165 281.893C545.971 282.827 545.626 284.156 545.147 285.788C544.667 287.421 544.003 289.339 543.17 291.434C542.32 293.52 541.285 295.775 540.065 298.063C538.828 300.352 537.516 302.455 536.254 304.314C534.967 306.165 533.738 307.78 532.645 309.076C531.551 310.38 530.634 311.406 529.961 312.08C529.313 312.761 528.935 313.123 528.909 313.106Z" fill="#F2F2F2"/>
</svg>
