<svg width="334" height="264" viewBox="0 0 334 264" fill="none" xmlns="http://www.w3.org/2000/svg">
<path d="M301.64 143.628C296.323 113.971 270.865 88.0756 240.838 85.6274C224.475 84.2981 208.027 89.4554 191.73 87.4867C178.059 85.8377 165.078 78.9894 155.991 68.6412C142.547 53.3292 137.97 31.5474 123.727 16.9674C104.09 -3.12328 69.8151 -3.44298 45.9301 11.339C22.0366 26.1209 7.59121 52.7991 0.978453 80.0999L0.717634 88.4037C-0.72102 116.722 6.72465 149.643 23.164 174.883C39.8137 200.459 50.7592 211.017 81.0972 229.409C106.858 245.024 157.304 251.889 187.423 252.612C217.542 253.336 248.477 244.359 271.134 224.495C293.774 204.64 306.957 173.284 301.64 143.628Z" fill="#00B307"/>
<g opacity="0.8">
<path opacity="0.8" d="M301.64 143.628C296.323 113.971 270.865 88.0756 240.838 85.6274C224.475 84.2981 208.027 89.4554 191.73 87.4867C178.059 85.8377 165.078 78.9894 155.991 68.6412C142.547 53.3292 137.97 31.5474 123.727 16.9674C104.09 -3.12328 69.8151 -3.44298 45.9301 11.339C22.0366 26.1209 7.59121 52.7991 0.978453 80.0999L0.717634 88.4037C-0.72102 116.722 6.72465 149.643 23.164 174.883C39.8137 200.459 50.7592 211.017 81.0972 229.409C106.858 245.024 157.304 251.889 187.423 252.612C217.542 253.336 248.477 244.359 271.134 224.495C293.774 204.64 306.957 173.284 301.64 143.628Z" fill="white"/>
</g>
<path d="M331.129 249.5C332.28 241.568 326.783 234.205 318.852 233.054C310.92 231.903 303.557 237.4 302.406 245.332C301.255 253.263 306.752 260.626 314.684 261.777C322.615 262.928 329.978 257.431 331.129 249.5Z" fill="#00B307"/>
<path opacity="0.8" d="M331.129 249.5C332.28 241.568 326.783 234.205 318.852 233.054C310.92 231.903 303.557 237.4 302.406 245.332C301.255 253.263 306.752 260.626 314.684 261.777C322.615 262.928 329.978 257.431 331.129 249.5Z" fill="white"/>
</svg>
