<svg width="41" height="20" viewBox="0 0 41 20" fill="none" xmlns="http://www.w3.org/2000/svg">
<path d="M15.0293 19.6767L40.1764 12.0664V15.7061C40.1764 17.899 38.3987 19.6767 36.2058 19.6767H15.0293Z" fill="#FD6020"/>
<path fill-rule="evenodd" clip-rule="evenodd" d="M35.4035 1.05881C36.787 1.05881 37.5479 1.69879 37.5479 2.90765C37.617 3.83207 36.9945 4.61427 36.1644 4.75649L38.0321 7.38753H36.5794L34.9884 4.8276H34.8501V7.38753H33.6741V1.05881H35.4035ZM34.8501 3.97431H35.196C35.9569 3.97431 36.3028 3.61876 36.3028 2.97878C36.3028 2.4099 35.9569 2.05436 35.196 2.05436H34.8501V3.97431ZM29.5929 7.38753H32.9132V6.32089H30.7688V4.61427H32.844V3.54763H30.7688V2.12545H32.9132V1.05881H29.5929V7.38753ZM26.1342 5.32536L24.5432 1.05881H23.298L25.8575 7.52975H26.48L29.0395 1.05881H27.7943L26.1342 5.32536ZM12.092 4.25873C12.092 6.03646 13.4755 7.52976 15.2048 7.52976C15.7582 7.52976 16.2424 7.38754 16.7266 7.17421V5.75203C16.3808 6.17868 15.8965 6.46312 15.3431 6.46312C14.2364 6.46312 13.3371 5.60981 13.3371 4.47206V4.32984C13.2679 3.1921 14.1672 2.19657 15.274 2.12546C15.8274 2.12546 16.3808 2.4099 16.7266 2.83655V1.41437C16.3116 1.12993 15.7582 1.05882 15.274 1.05882C13.4755 0.916603 12.092 2.4099 12.092 4.25873ZM9.94757 3.47653C9.25583 3.1921 9.04831 3.04988 9.04831 2.69433C9.11749 2.26768 9.46336 1.91213 9.8784 1.98324C10.2243 1.98324 10.5701 2.19657 10.8468 2.481L11.4694 1.62769C10.9852 1.20104 10.3626 0.916601 9.74005 0.916601C8.77162 0.845492 7.94153 1.62769 7.87236 2.62322V2.69433C7.87236 3.54764 8.21823 4.04541 9.32501 4.40095C9.6017 4.47206 9.8784 4.61428 10.1551 4.7565C10.3626 4.89872 10.501 5.11204 10.501 5.39648C10.501 5.89425 10.0859 6.3209 9.67088 6.3209H9.6017C9.04831 6.3209 8.56409 5.96535 8.35657 5.46759L7.59566 6.24979C8.0107 7.03199 8.84079 7.45865 9.67088 7.45865C10.7777 7.52976 11.6769 6.67645 11.7461 5.5387V5.32537C11.6769 4.47206 11.331 4.04541 9.94757 3.47653ZM5.93543 7.38753H7.11139V1.05881H5.93543V7.38753ZM0.470703 1.05881H2.20005H2.54592C4.20609 1.12992 5.5204 2.5521 5.45122 4.25872C5.45122 5.18314 5.03618 6.03645 4.34444 6.67644C3.72188 7.1742 2.96096 7.45864 2.20005 7.38753H0.470703V1.05881ZM1.9926 6.32086C2.54599 6.39197 3.16856 6.17864 3.5836 5.8231C3.99864 5.39644 4.20617 4.82757 4.20617 4.18758C4.20617 3.61871 3.99864 3.04984 3.5836 2.62318C3.16856 2.26764 2.54599 2.05431 1.9926 2.12542H1.64673V6.32086H1.9926Z" fill="white"/>
<path fill-rule="evenodd" clip-rule="evenodd" d="M20.2543 0.912109C18.5249 0.912109 17.0723 2.33429 17.0723 4.18313C17.0723 5.96086 18.4557 7.45416 20.2543 7.52527C22.0528 7.59637 23.4363 6.10308 23.5054 4.25424C23.4363 2.4054 22.0528 0.912109 20.2543 0.912109V0.912109Z" fill="#FD6020"/>
</svg>
