<svg width="571" height="233" viewBox="0 0 571 233" fill="none" xmlns="http://www.w3.org/2000/svg">
<path d="M493.526 228.947C494.965 225.817 498.002 223.478 501.392 222.889C504.783 222.3 508.434 223.486 510.84 225.952C509.2 228.871 506.255 230.814 503.092 231.9C499.373 233.178 495.327 231.673 493.526 228.947Z" fill="#00B307"/>
<path d="M487.553 230.326C487.536 230.275 488.453 229.939 489.967 229.569C491.49 229.198 493.602 228.778 495.957 228.391C498.305 228.004 500.45 227.709 501.998 227.533C503.546 227.348 504.514 227.28 504.522 227.339C504.53 227.398 503.58 227.583 502.04 227.844C500.366 228.121 498.305 228.458 496.025 228.828C493.678 229.215 491.557 229.585 490.026 229.871C488.503 230.166 487.57 230.385 487.553 230.326Z" fill="#1A1A1A"/>
<path d="M192.814 175.682C196.381 178.618 198.341 183.405 197.845 188.007C197.349 192.601 194.421 196.866 190.307 198.978C187.219 191.061 186.033 182.538 192.814 175.682Z" fill="#00B307"/>
<path d="M204.517 181.758C204.845 187.731 208.336 193.444 213.51 196.447C218.684 199.451 225.373 199.67 230.724 196.994C224.843 187.706 216.867 179.941 204.517 181.758Z" fill="#00B307"/>
<path d="M177.704 152.496C177.712 152.488 177.847 152.631 178.091 152.917C178.36 153.237 178.705 153.657 179.142 154.171C180.042 155.273 181.338 156.863 182.987 158.789C186.268 162.66 190.904 167.926 196.364 173.42C199.098 176.163 201.782 178.695 204.281 180.933C206.796 183.154 209.127 185.081 211.138 186.612C213.174 188.118 214.856 189.296 216.093 189.986C217.313 190.709 218.036 191.004 218.019 191.054C218.011 191.071 217.834 190.995 217.489 190.852C217.145 190.701 216.631 190.499 216.017 190.137C214.747 189.489 213.03 188.345 210.961 186.864C208.908 185.358 206.561 183.449 204.02 181.236C201.504 179.006 198.804 176.474 196.061 173.731C190.593 168.229 185.982 162.92 182.76 158.991C181.145 157.031 179.874 155.416 179.016 154.28C178.612 153.742 178.284 153.313 178.032 152.976C177.805 152.673 177.695 152.505 177.704 152.496Z" fill="#1A1A1A"/>
<path d="M192.166 187.647C192.09 187.631 192.376 186.461 192.612 184.551C192.856 182.642 192.99 179.975 192.696 177.055C192.385 174.136 191.703 171.553 191.072 169.736C190.441 167.919 189.928 166.833 189.995 166.8C190.02 166.783 190.172 167.044 190.424 167.532C190.685 168.011 191.005 168.726 191.358 169.635C192.073 171.444 192.814 174.052 193.133 177.013C193.436 179.975 193.243 182.684 192.923 184.602C192.763 185.561 192.595 186.335 192.443 186.857C192.284 187.378 192.191 187.656 192.166 187.647Z" fill="#1A1A1A"/>
<path d="M563.448 17.3892C561.37 14.6381 560.756 10.8521 561.85 7.58782C562.943 4.3235 565.711 1.66493 569.026 0.722656C570.818 3.54948 571.129 7.05779 570.591 10.3642C569.951 14.2511 566.704 17.0947 563.448 17.3892Z" fill="#00B307"/>
<path d="M561.833 23.3047C561.774 23.2963 561.917 22.3287 562.321 20.8144C562.716 19.3 563.356 17.2388 564.13 14.984C564.904 12.7293 565.661 10.7101 566.233 9.26308C566.805 7.81601 567.2 6.93263 567.259 6.94945C567.318 6.97469 567.024 7.89172 566.527 9.37244C565.972 10.9794 565.299 12.948 564.542 15.1355C563.768 17.3818 563.086 19.4262 562.615 20.9069C562.136 22.3876 561.892 23.3215 561.833 23.3047Z" fill="#1A1A1A"/>
<path d="M526.371 79.9828C524.638 73.5551 526.262 66.3114 530.586 61.2466C534.91 56.1819 541.801 53.4224 548.422 54.1207C549.591 60.481 547.614 67.0097 544.258 72.5455C540.295 79.0573 532.42 81.8169 526.371 79.9828Z" fill="#00B307"/>
<path d="M501.519 104.885C501.51 104.877 501.628 104.717 501.872 104.431C502.15 104.111 502.512 103.707 502.957 103.194C503.925 102.134 505.33 100.62 507.097 98.7689C510.622 95.0671 515.552 90.0108 521.037 84.4581C526.523 78.9054 531.52 73.9164 535.155 70.3155C536.955 68.5488 538.419 67.1101 539.479 66.0753C539.967 65.6042 540.362 65.2256 540.674 64.9395C540.951 64.6871 541.103 64.5525 541.111 64.5609C541.12 64.5693 540.993 64.7208 540.741 64.9984C540.455 65.3013 540.076 65.6967 539.605 66.1931C538.57 67.2531 537.14 68.7254 535.382 70.5343C531.764 74.2108 526.817 79.2251 521.357 84.7694C515.897 90.3052 510.95 95.3195 507.324 98.9876C505.565 100.788 504.127 102.252 503.084 103.312C502.612 103.8 502.225 104.187 501.939 104.49C501.679 104.759 501.536 104.894 501.519 104.885Z" fill="#1A1A1A"/>
<g opacity="0.3">
<path opacity="0.3" d="M526.371 79.9828C524.638 73.5551 526.262 66.3114 530.586 61.2466C534.91 56.1819 541.801 53.4224 548.422 54.1207C549.591 60.481 547.614 67.0097 544.258 72.5455C540.295 79.0573 532.42 81.8169 526.371 79.9828Z" fill="#1A1A1A"/>
</g>
<path d="M514.879 82.4816C511.244 80.6139 508.628 76.8784 508.115 72.8233C507.601 68.7681 509.192 64.5026 512.246 61.7852C515.619 63.88 517.765 67.4809 518.892 71.2836C520.213 75.7763 518.21 80.4961 514.879 82.4816Z" fill="#00B307"/>
<g opacity="0.3">
<path opacity="0.3" d="M514.879 82.4816C511.244 80.6139 508.628 76.8784 508.115 72.8233C507.601 68.7681 509.192 64.5026 512.246 61.7852C515.619 63.88 517.765 67.4809 518.892 71.2836C520.213 75.7763 518.21 80.4961 514.879 82.4816Z" fill="#1A1A1A"/>
</g>
<path d="M516.191 89.6508C516.166 89.6592 516.074 89.3816 515.93 88.8852C515.787 88.3804 515.628 87.6485 515.451 86.7398C515.098 84.9142 514.727 82.3818 514.391 79.5718C514.054 76.7618 513.819 74.2126 513.684 72.3701C513.541 70.5192 513.499 69.375 513.558 69.375C513.617 69.3666 513.768 70.5024 513.987 72.3449C514.214 74.3052 514.5 76.787 514.82 79.5297C515.156 82.3313 515.476 84.8637 515.754 86.6978C516.031 88.515 516.259 89.634 516.191 89.6508Z" fill="#1A1A1A"/>
<path d="M357.342 179.99C359.908 173.941 365.646 169.347 372.107 168.169C378.568 166.991 385.56 169.271 390.086 174.025C380.546 181.428 369.415 186.476 357.342 179.99Z" fill="#00B307"/>
<g opacity="0.3">
<path opacity="0.3" d="M357.342 179.99C359.908 173.941 365.646 169.347 372.107 168.169C378.568 166.991 385.56 169.271 390.086 174.025C380.546 181.428 369.415 186.476 357.342 179.99Z" fill="#1A1A1A"/>
</g>
<path d="M351.949 182.951C351.932 182.926 352.202 182.715 352.706 182.362C353.211 182 353.96 181.521 354.911 180.965C356.812 179.846 359.572 178.5 362.777 177.44C365.982 176.389 369.003 175.833 371.199 175.598C372.292 175.48 373.184 175.421 373.807 175.413C374.421 175.396 374.766 175.404 374.766 175.438C374.766 175.514 373.411 175.598 371.241 175.909C369.07 176.22 366.1 176.818 362.92 177.861C359.748 178.913 356.997 180.2 355.071 181.243C353.135 182.269 351.991 183.01 351.949 182.951Z" fill="#1A1A1A"/>
<path d="M135.562 70.3677C140.156 68.2223 145.827 68.5505 150.143 71.2174C154.458 73.8844 157.294 78.7977 157.437 83.8709C148.14 83.181 139.147 80.3289 135.562 70.3677Z" fill="#00B307"/>
<g opacity="0.3">
<path opacity="0.3" d="M135.562 70.3677C140.156 68.2223 145.827 68.5505 150.143 71.2174C154.458 73.8844 157.294 78.7977 157.437 83.8709C148.14 83.181 139.147 80.3289 135.562 70.3677Z" fill="#1A1A1A"/>
</g>
<path d="M130.943 69.2812C130.952 69.2475 131.213 69.2643 131.684 69.3148C132.155 69.3569 132.845 69.4663 133.678 69.6345C135.352 69.9711 137.632 70.6105 140.021 71.6621C142.411 72.7138 144.43 73.9589 145.801 74.9685C146.491 75.4733 147.029 75.9024 147.383 76.2221C147.745 76.5418 147.93 76.7184 147.913 76.7437C147.871 76.8026 147.038 76.1547 145.624 75.2209C144.211 74.287 142.2 73.1008 139.845 72.0575C137.489 71.0227 135.251 70.3412 133.61 69.929C131.97 69.5252 130.935 69.3485 130.943 69.2812Z" fill="#1A1A1A"/>
<path d="M437.032 169.685C436.485 165.184 438.344 160.455 441.81 157.528C445.277 154.6 450.249 153.557 454.598 154.844C451.427 162.559 446.497 169.415 437.032 169.685Z" fill="#00B307"/>
<path d="M434.819 173.311C434.777 173.286 435.122 172.411 435.871 171.073C436.619 169.744 437.797 167.977 439.362 166.235C440.927 164.494 442.551 163.131 443.787 162.239C445.032 161.347 445.865 160.91 445.891 160.952C445.924 161.011 445.15 161.541 443.972 162.483C442.786 163.425 441.221 164.805 439.682 166.522C438.142 168.238 436.939 169.946 436.131 171.225C435.332 172.512 434.886 173.336 434.819 173.311Z" fill="#1A1A1A"/>
<path d="M503.235 125.978C501.855 121.653 502.789 116.664 505.641 113.139C508.493 109.614 513.179 107.654 517.697 108.1C516.031 116.277 512.481 123.933 503.235 125.978Z" fill="#00B307"/>
<g opacity="0.3">
<path opacity="0.3" d="M503.235 125.978C501.855 121.653 502.789 116.664 505.641 113.139C508.493 109.614 513.179 107.654 517.697 108.1C516.031 116.277 512.481 123.933 503.235 125.978Z" fill="#1A1A1A"/>
</g>
<path d="M501.746 129.958C501.695 129.941 501.872 129.016 502.36 127.569C502.84 126.122 503.672 124.161 504.876 122.159C506.079 120.157 507.425 118.508 508.476 117.406C509.528 116.295 510.268 115.706 510.302 115.748C510.353 115.799 509.688 116.463 508.704 117.616C507.719 118.76 506.44 120.418 505.246 122.395C504.06 124.372 503.201 126.273 502.646 127.686C502.099 129.075 501.813 129.975 501.746 129.958Z" fill="#1A1A1A"/>
<path d="M4.19043 65.8162C5.17477 61.3824 8.49798 57.546 12.7382 55.9391C16.9785 54.3322 22.018 54.9968 25.6861 57.6638C20.1418 63.8811 13.2094 68.7103 4.19043 65.8162Z" fill="#00B307"/>
<path d="M0.900727 68.5008C0.867074 68.4671 1.48124 67.752 2.63384 66.7424C3.77804 65.7328 5.48591 64.4625 7.53032 63.3435C9.58313 62.2245 11.5686 61.4758 13.0325 61.0467C14.4964 60.6176 15.4387 60.483 15.4471 60.5335C15.4639 60.6008 14.5553 60.8448 13.1251 61.3412C11.6948 61.8375 9.75981 62.62 7.73223 63.7221C5.71307 64.8326 4.00519 66.0441 2.81893 66.978C1.6495 67.9203 0.951206 68.5513 0.900727 68.5008Z" fill="#1A1A1A"/>
</svg>
