<svg width="68" height="66" viewBox="0 0 68 66" fill="none" xmlns="http://www.w3.org/2000/svg">
<path d="M0.748535 62.0237L7.51274 49.833C4.4251 44.9197 2.60786 39.1231 2.54897 32.8973C2.3807 14.9941 16.7504 0.338296 34.6621 0.161619C52.5653 -0.00664464 67.2211 14.3631 67.3978 32.2747C67.566 50.178 53.1963 64.8337 35.2846 65.0104C27.8053 65.0861 20.9065 62.6127 15.3791 58.4145L15.3875 58.4313L0.748535 62.0237Z" fill="white"/>
<path d="M0.748535 62.0226C1.50572 61.8291 6.0825 60.668 15.3538 58.3208L15.2949 58.4975L15.2865 58.4806L14.7733 57.8244L15.4379 58.3208C17.2972 59.7174 19.5184 61.0803 22.118 62.2077C24.7261 63.3182 27.6959 64.21 30.9686 64.6054C32.6008 64.7905 34.3087 64.8999 36.0587 64.7989C36.9336 64.74 37.8254 64.7064 38.7172 64.6222C39.609 64.4792 40.5092 64.3278 41.4262 64.1764C45.0523 63.4108 48.7457 61.9889 52.1867 59.8015C55.6193 57.6225 58.791 54.6779 61.3234 51.077C63.8474 47.4846 65.7403 43.2359 66.6069 38.6423C67.4566 34.0487 67.3304 29.1355 66.0769 24.3988C64.8149 19.679 62.5097 15.0686 59.0855 11.2995L57.7646 9.86927C57.3272 9.38972 56.814 8.9943 56.3428 8.55681C55.8549 8.14456 55.409 7.67343 54.8789 7.30325L53.3309 6.16747C52.8261 5.77205 52.2792 5.45235 51.7324 5.13265L50.1003 4.16513C49.5282 3.89591 48.956 3.62669 48.3924 3.35747C47.8203 3.09666 47.265 2.79378 46.6677 2.60869C41.9984 0.808272 37.0346 0.143629 32.2895 0.530636C27.5445 0.909229 23.0182 2.31423 19.1397 4.53531C15.2444 6.73956 11.9717 9.67576 9.44776 12.9401C6.91539 16.2044 5.14022 19.8052 4.04651 23.3892C2.96121 26.9817 2.68356 30.5489 2.71722 33.8468C2.94437 40.4932 5.1907 45.945 7.59687 49.7898L7.63051 49.8403L7.59687 49.8908C3.23885 57.6141 1.11871 61.3748 0.748535 62.0226C1.10189 61.3663 3.17152 57.5804 7.42018 49.7814V49.8908C4.97194 46.0375 2.67514 40.5521 2.42275 33.8468C2.38068 30.5152 2.64151 26.9144 3.72681 23.2799C4.82052 19.6622 6.6041 16.0193 9.15329 12.7045C11.6941 9.38972 15.0089 6.41986 18.9462 4.18196C22.8668 1.91881 27.4604 0.496983 32.2559 0.109977C37.0598 -0.285443 42.0909 0.3792 46.8275 2.20486C47.4333 2.38995 47.9969 2.70124 48.5774 2.96205C49.1495 3.23127 49.7301 3.5089 50.3106 3.78654L51.968 4.77088C52.5232 5.09899 53.0869 5.41869 53.5917 5.82253L55.1565 6.97513C55.695 7.34531 56.1409 7.82486 56.6373 8.24552C57.1168 8.69142 57.6384 9.08684 58.0759 9.5748L59.4136 11.0219C62.8882 14.8499 65.2271 19.5108 66.4975 24.3063C67.7595 29.1102 67.8857 34.0908 67.0191 38.7433C66.1442 43.4042 64.2175 47.7033 61.6515 51.3294C59.0855 54.9723 55.8717 57.9422 52.3886 60.138C48.9056 62.3423 45.1617 63.7725 41.4935 64.5381C40.5681 64.6896 39.6595 64.8326 38.7593 64.9756C37.8506 65.0597 36.9504 65.0934 36.067 65.1523C34.3003 65.2532 32.5756 65.1355 30.9266 64.9419C27.6202 64.5381 24.6251 63.6211 22.0086 62.4853C19.3921 61.3327 17.1627 59.9445 15.3033 58.5227L15.4548 58.3713L15.4632 58.3881L15.5642 58.5227L15.3959 58.5648C6.10773 60.7522 1.50572 61.8459 0.748535 62.0226Z" fill="#1A1A1A"/>
<path d="M25.9798 27.0315L30.1948 26.9894C30.1948 26.9894 30.1611 23.4475 33.8377 23.3465C35.7475 23.296 36.7486 24.5412 37.1609 25.4919C37.6404 26.6024 37.5058 27.8728 36.8917 28.9076C36.185 30.0939 34.6285 31.1792 31.7849 30.708L31.8774 40.2233L36.0504 40.1813L35.9999 34.6117C35.9999 34.6117 41.8386 33.0469 41.7713 26.594C41.7124 20.4271 36.1681 19.0474 33.7956 19.0726C31.9952 19.0978 25.8284 19.5942 25.9798 27.0315Z" fill="#00B307"/>
<path d="M36.1445 42.1508L31.9126 42.1914L31.9506 46.1456L36.1824 46.105L36.1445 42.1508Z" fill="#00B307"/>
</svg>
