<svg width="33" height="15" viewBox="0 0 33 15" fill="none" xmlns="http://www.w3.org/2000/svg">
<path fill-rule="evenodd" clip-rule="evenodd" d="M6.00624 2.04333C5.62853 2.50908 5.02419 2.87643 4.41985 2.82395C4.34431 2.19421 4.64019 1.52511 4.98642 1.11184C5.36413 0.632975 6.02513 0.291864 6.56022 0.265625C6.62317 0.921606 6.37766 1.56447 6.00624 2.04333ZM6.55393 2.94857C6.02152 2.91664 5.53572 3.11542 5.14332 3.27597C4.89081 3.3793 4.67697 3.46679 4.51429 3.46679C4.33173 3.46679 4.10907 3.37462 3.85907 3.27113C3.53149 3.13552 3.15697 2.98049 2.76423 2.98793C1.86402 3.00105 1.02676 3.53239 0.567207 4.37861C-0.377072 6.07104 0.321694 8.57688 1.2345 9.95444C1.68146 10.6367 2.21655 11.3845 2.92161 11.3582C3.23179 11.346 3.45492 11.2474 3.68584 11.1453C3.95169 11.0277 4.22786 10.9056 4.65908 10.9056C5.07535 10.9056 5.33945 11.0245 5.59296 11.1387C5.83401 11.2473 6.0655 11.3515 6.40914 11.3451C7.13939 11.332 7.59894 10.6629 8.04589 9.98068C8.52823 9.24847 8.7402 8.53388 8.77236 8.42543L8.77614 8.41289C8.77536 8.41208 8.76941 8.40924 8.75889 8.40423C8.59766 8.32731 7.36524 7.7394 7.35342 6.16287C7.34156 4.83961 8.33094 4.16917 8.48668 4.06363C8.49616 4.0572 8.50255 4.05287 8.50544 4.05062C7.87592 3.07976 6.89387 2.97481 6.55393 2.94857ZM11.609 11.273V1.04622H15.2917C17.1929 1.04622 18.5211 2.41066 18.5211 4.40484C18.5211 6.39902 17.1677 7.77658 15.2413 7.77658H13.1325V11.273H11.609ZM13.1324 2.38445H14.8888C16.2108 2.38445 16.9662 3.11915 16.9662 4.41143C16.9662 5.70371 16.2108 6.44497 14.8825 6.44497H13.1324V2.38445ZM23.5511 10.0463C23.1482 10.8466 22.2606 11.3517 21.3037 11.3517C19.8873 11.3517 18.8989 10.4727 18.8989 9.14764C18.8989 7.83568 19.8558 7.0813 21.6248 6.96978L23.5259 6.85171V6.28756C23.5259 5.45447 23.0034 5.00184 22.0717 5.00184C21.3037 5.00184 20.7434 5.41511 20.6301 6.04485H19.2578C19.3018 4.71977 20.4979 3.75548 22.1158 3.75548C23.8595 3.75548 24.9927 4.70665 24.9927 6.18261V11.273H23.5826V10.0463H23.5511ZM21.7128 10.1381C20.9007 10.1381 20.3845 9.73142 20.3845 9.10824C20.3845 8.46538 20.8818 8.09147 21.8324 8.03243L23.5258 7.92091V8.49818C23.5258 9.45591 22.7452 10.1381 21.7128 10.1381ZM29.67 11.6732C29.0594 13.464 28.3606 14.0544 26.875 14.0544C26.7616 14.0544 26.3839 14.0413 26.2958 14.015V12.7883C26.3902 12.8014 26.6231 12.8146 26.7428 12.8146C27.4163 12.8146 27.7941 12.5194 28.027 11.7519L28.1655 11.2993L25.5844 3.85387H27.1771L28.9713 9.89545H29.0027L30.7969 3.85387H32.3455L29.67 11.6732Z" fill="white"/>
</svg>
