<svg width="21" height="21" viewBox="0 0 21 21" fill="none" xmlns="http://www.w3.org/2000/svg">
<path d="M13.436 1.375C14.9193 1.77396 16.2718 2.55567 17.358 3.64184C18.4442 4.72801 19.2259 6.08051 19.6249 7.56388" stroke="#1A1A1A" stroke-width="1.5" stroke-linecap="round" stroke-linejoin="round"/>
<path d="M12.5306 4.75586C13.4205 4.99525 14.2318 5.46421 14.8833 6.11578C15.5349 6.76735 16.0039 7.57866 16.2433 8.46848" stroke="#1A1A1A" stroke-width="1.5" stroke-linecap="round" stroke-linejoin="round"/>
<path d="M6.115 10.6512C7.02238 12.5069 8.5263 14.0043 10.3859 14.9037C10.522 14.9682 10.6727 14.9961 10.8229 14.9846C10.9731 14.973 11.1178 14.9225 11.2425 14.8381L13.9812 13.0128C14.1022 12.932 14.2414 12.8827 14.3862 12.8693C14.5311 12.8558 14.677 12.8787 14.8107 12.9358L19.9339 15.1321C20.1079 15.206 20.2532 15.3344 20.3479 15.4981C20.4426 15.6617 20.4815 15.8517 20.4589 16.0394C20.2967 17.3064 19.6784 18.4708 18.7196 19.3148C17.7608 20.1587 16.5273 20.6243 15.25 20.6244C11.3049 20.6244 7.52139 19.0573 4.73179 16.2676C1.94218 13.478 0.375 9.69453 0.375 5.74943C0.375118 4.47222 0.840745 3.23884 1.68471 2.28021C2.52867 1.32157 3.6931 0.703398 4.96 0.541433C5.14771 0.518796 5.33769 0.557753 5.50134 0.65244C5.66499 0.747127 5.79345 0.892416 5.86738 1.06643L8.06537 6.19393C8.1219 6.32642 8.14485 6.47081 8.13218 6.61429C8.11951 6.75777 8.07162 6.8959 7.99275 7.01643L6.17275 9.79718C6.09015 9.92241 6.04141 10.0669 6.03129 10.2166C6.02117 10.3662 6.05001 10.516 6.115 10.6512V10.6512Z" stroke="#1A1A1A" stroke-width="1.5" stroke-linecap="round" stroke-linejoin="round"/>
</svg>
