<svg width="18" height="19" viewBox="0 0 18 19" fill="none" xmlns="http://www.w3.org/2000/svg">
<path d="M16 18.8672H7C6.46957 18.8672 5.96086 18.6565 5.58579 18.2814C5.21071 17.9063 5 17.3976 5 16.8672V12.8672H7V16.8672H16V2.86719H7V6.86719H5V2.86719C5 2.33675 5.21071 1.82805 5.58579 1.45297C5.96086 1.0779 6.46957 0.867188 7 0.867188H16C16.5304 0.867188 17.0391 1.0779 17.4142 1.45297C17.7893 1.82805 18 2.33675 18 2.86719V16.8672C18 17.3976 17.7893 17.9063 17.4142 18.2814C17.0391 18.6565 16.5304 18.8672 16 18.8672ZM9 13.8672V10.8672H0V8.86719H9V5.86719L14 9.86719L9 13.8672Z" fill="#CCCCCC"/>
</svg>
