<svg width="14" height="14" viewBox="0 0 14 14" fill="none" xmlns="http://www.w3.org/2000/svg">
<path fill-rule="evenodd" clip-rule="evenodd" d="M0.916949 0.00350981C1.46733 -0.0423549 1.95068 0.366633 1.99654 0.91701L2.7673 10.1661C2.85368 11.2027 3.72022 12.0001 4.76039 12.0001H9.2396C10.2798 12.0001 11.1463 11.2027 11.2327 10.1661L12.0034 0.91701C12.0493 0.366633 12.5327 -0.0423549 13.083 0.00350981C13.6334 0.0493746 14.0424 0.532724 13.9965 1.0831L13.2258 10.3322C13.053 12.4054 11.32 14.0001 9.2396 14.0001H4.76039C2.68004 14.0001 0.946974 12.4054 0.77421 10.3322L0.00344878 1.0831C-0.042416 0.532724 0.366572 0.0493745 0.916949 0.00350981Z" fill="#FF0000"/>
</svg>
