<svg width="33" height="12" viewBox="0 0 33 12" fill="none" xmlns="http://www.w3.org/2000/svg">
<path fill-rule="evenodd" clip-rule="evenodd" d="M8.72834 10.9889H6.00222L3.95795 2.96057C3.86092 2.59127 3.6549 2.26478 3.35185 2.1109C2.59555 1.7242 1.76216 1.41645 0.853012 1.26123V0.952143H5.24459C5.85069 0.952143 6.30527 1.41645 6.38103 1.95569L7.44171 7.74681L10.1665 0.952143H12.8169L8.72834 10.9889ZM14.3322 10.9889H11.7576L13.8776 0.952143H16.4522L14.3322 10.9889ZM19.783 3.73268C19.8587 3.1921 20.3133 2.88301 20.8437 2.88301C21.677 2.8054 22.5849 2.96062 23.3425 3.34598L23.7971 1.18501C23.0394 0.875918 22.2061 0.720703 21.4498 0.720703C18.9509 0.720703 17.1326 2.11095 17.1326 4.04043C17.1326 5.50828 18.4206 6.27901 19.3297 6.74331C20.3133 7.20628 20.6921 7.51537 20.6164 7.97834C20.6164 8.6728 19.8587 8.98189 19.1024 8.98189C18.1933 8.98189 17.2841 8.7504 16.4521 8.3637L15.9975 10.526C16.9067 10.9114 17.8902 11.0666 18.7994 11.0666C21.6013 11.1429 23.3425 9.75395 23.3425 7.66925C23.3425 5.04398 19.783 4.8901 19.783 3.73268ZM32.3529 10.9889L30.3087 0.952143H28.1129C27.6583 0.952143 27.2037 1.26123 27.0522 1.7242L23.2667 10.9889H25.9171L26.4461 9.52242H29.7026L30.0056 10.9889H32.3529ZM28.4918 3.6551L29.2481 7.4378H27.1281L28.4918 3.6551Z" fill="white"/>
</svg>
